<svg width="64" height="64" viewBox="0 0 64 64" fill="none" xmlns="http://www.w3.org/2000/svg">
<path d="M39.48 39C39.48 39 39.5 39 39.51 39C45.61 38.78 44.4 43.82 38.99 44.48C37.71 39.62 33.93 36.57 26.83 36.34C26.83 32.12 26.62 28.49 26.27 25.42C26.91 28.16 30.26 31.1 36.79 33.25C30.03 33.34 30.75 38.45 39.42 39C38.59 39.04 37.62 39.17 36.51 39.43C37.66 39.38 38.65 39.23 39.48 39.01V39Z" fill="#2846ED"/>
<path d="M21.9 41.96C21.4 42.56 21.51 45.41 23.41 45.83C22.47 48.26 18.41 48.68 17.38 45.41C19.11 44.44 20.43 43.45 21.39 42.5C21.57 42.32 21.74 42.14 21.9 41.96Z" fill="#2846ED"/>
<path d="M22.3799 42.33L21.9 41.96L21.45 41.56C21.66 41.31 22.0399 41.27 22.2999 41.48C22.5499 41.69 22.5899 42.07 22.3799 42.32V42.33Z" fill="black"/>
<path d="M20.44 48.36C20.44 48.36 20.35 48.36 20.31 48.36C18.65 48.31 17.34 47.27 16.81 45.59C16.73 45.32 16.84 45.03 17.09 44.89C18.69 43.99 20 43.04 20.97 42.08C21.14 41.91 21.3 41.74 21.45 41.57C21.81 41.16 22.09 40.77 22.31 40.4C23.01 39.17 23 38.1 22.28 37.39C20.82 35.96 16.77 36.06 11.85 39.01C11.57 39.18 11.2 39.09 11.03 38.8C4.36998 27.71 4.14998 20.92 5.98998 18.47C6.72998 17.48 7.84998 17.1 9.06998 17.42C12.12 18.22 15.76 23.32 17.03 32.93C17.09 33.38 17.14 33.84 17.19 34.31C17.22 34.64 16.98 34.93 16.65 34.97C16.33 35 16.03 34.76 15.99 34.43C15.94 33.97 15.89 33.52 15.83 33.08C14.64 24.07 11.33 19.25 8.75998 18.57C8.00998 18.37 7.39998 18.57 6.94998 19.18C5.66998 20.89 5.27998 26.68 11.75 37.66C17.22 34.55 21.38 34.82 23.12 36.52C24.25 37.63 24.34 39.26 23.35 40.98C23.1 41.41 22.78 41.86 22.4 42.3C22.4 42.31 22.38 42.33 22.37 42.34C22.26 42.51 22.14 43.37 22.47 44.2C22.7 44.78 23.06 45.13 23.55 45.23C23.72 45.27 23.87 45.38 23.95 45.53C24.03 45.68 24.04 45.87 23.98 46.03C23.44 47.43 22.03 48.34 20.45 48.34L20.44 48.36ZM18.13 45.67C18.73 46.96 19.86 47.14 20.35 47.15C21.26 47.19 22.08 46.78 22.57 46.13C21.99 45.8 21.55 45.23 21.3 44.48C21.2 44.19 21.13 43.89 21.09 43.59C20.26 44.3 19.27 45 18.13 45.66V45.67Z" fill="#2846ED"/>
<path d="M21.0101 56.41C15.4801 56.41 10.7301 54.33 8.22006 50.95C4.64006 46.11 7.39006 41.1 11.1601 38.03L11.9201 38.96C7.59006 42.49 6.57006 46.71 9.19006 50.24C12.8501 55.19 23.7001 58.16 34.5701 50.89L35.2401 51.89C30.5201 55.05 25.5101 56.42 21.0201 56.42L21.0101 56.41Z" fill="#2846ED"/>
<path d="M48.37 34.79C48.23 34.79 48.08 34.74 47.96 34.63C47.72 34.41 47.7 34.03 47.92 33.78C49.52 32.03 50.24 30.6 50.01 29.63C49.87 29.03 49.33 28.54 48.41 28.15C44.54 30.25 41.55 29.61 40.03 28.28C38.81 27.22 38.36 25.63 38.81 24.04C39.14 22.86 40.42 20.26 45.29 18.73C36.55 17.57 30.91 19.18 28.45 21.24C27.32 22.19 26.73 23.3 26.75 24.47C26.75 24.73 26.79 24.99 26.85 25.26C27.5 28.06 31.19 30.75 36.98 32.66C37.3 32.76 37.47 33.1 37.36 33.42C37.26 33.74 36.92 33.91 36.6 33.8C30.32 31.73 26.44 28.79 25.68 25.53C25.6 25.19 25.56 24.83 25.55 24.49C25.53 22.95 26.27 21.51 27.68 20.32C31.49 17.13 39.27 16.27 48.48 18.03L51.75 18.65L48.46 19.21C43.83 19.99 40.65 21.92 39.96 24.36C39.63 25.51 39.95 26.61 40.82 27.37C42.06 28.45 44.62 28.92 48.07 26.96L48.31 26.82L48.57 26.92C50.04 27.47 50.92 28.28 51.18 29.34C51.52 30.75 50.74 32.46 48.81 34.58C48.69 34.71 48.53 34.77 48.37 34.77V34.79Z" fill="#2846ED"/>
<path d="M29.2699 50.99C28.9199 50.99 28.5599 50.87 28.2399 50.62C26.5699 49.36 25.2299 44.33 26.2399 36.26C26.2399 32.33 26.0499 28.68 25.6699 25.48C25.6299 25.17 25.5999 24.87 25.5599 24.57C24.4599 16.2 22.1799 12.61 20.4999 12.8C18.1599 13.08 15.6499 20.23 17.0299 32.93C17.0799 33.38 17.1299 33.83 17.1899 34.28C17.2299 34.61 16.9999 34.91 16.6699 34.95C16.3499 34.99 16.0399 34.76 15.9999 34.43C15.9399 33.96 15.8899 33.51 15.8399 33.05C14.7599 23.04 15.9699 12.13 20.3599 11.6C23.2699 11.25 25.6499 16.04 26.7499 24.4C26.7899 24.7 26.8299 25.01 26.8599 25.32C27.2399 28.56 27.4299 32.26 27.4299 36.31C26.4699 44.01 27.7499 48.73 28.9599 49.64C29.1799 49.81 29.3199 49.78 29.4299 49.73C30.0899 49.44 31.0199 47.68 31.4799 43.63C31.5199 43.3 31.8099 43.07 32.1399 43.1C32.4699 43.14 32.7099 43.43 32.6699 43.76C32.3499 46.57 31.6099 50.09 29.8999 50.82C29.6899 50.91 29.4799 50.95 29.2699 50.95V50.99Z" fill="#2846ED"/>
<path d="M32.07 44.33C32.07 44.33 32.05 44.33 32.04 44.33C31.72 44.31 31.47 44.05 31.47 43.73C31.47 42.72 31.55 41.65 31.71 40.55C31.76 40.23 32.04 40 32.36 40.04C32.68 40.07 32.92 40.34 32.9 40.66C32.85 41.78 32.78 42.84 32.67 43.79C32.63 44.09 32.38 44.32 32.07 44.32V44.33Z" fill="#2846ED"/>
<path d="M36.46 52.51C35.82 52.51 35.17 52.3 34.55 51.87C32.62 50.53 31.47 47.49 31.46 43.73C31.46 43.4 31.73 43.13 32.06 43.13C32.39 43.13 32.66 43.4 32.66 43.73C32.66 47.69 33.99 50.02 35.23 50.88C35.96 51.39 36.69 51.45 37.3 51.05C38.3 50.4 39.11 48.36 38.39 44.58C38.36 44.42 38.39 44.25 38.5 44.11C38.6 43.98 38.75 43.89 38.91 43.87C41.69 43.53 43.06 42 42.98 41.02C42.91 40.08 41.57 39.52 39.59 39.58C38.71 39.81 37.68 39.96 36.54 40.01C36.2 40.01 35.96 39.8 35.92 39.49C35.88 39.18 36.08 38.89 36.38 38.82C37.48 38.57 38.49 38.42 39.4 38.38H39.42C41.03 37.94 42.03 37.17 41.98 36.42C41.91 35.48 40.24 34.28 36.72 33.85C36.39 33.81 36.16 33.51 36.2 33.18C36.24 32.85 36.54 32.62 36.86 32.65C41.39 33.15 42.18 32.18 42.31 31.87C42.55 31.33 42.07 30.1 40.01 28.3C39.06 27.46 37.87 26.59 36.47 25.69C36.19 25.51 36.11 25.14 36.29 24.86C36.47 24.58 36.84 24.5 37.12 24.68C38.57 25.61 39.81 26.52 40.81 27.4C43.1 29.41 43.98 31.08 43.42 32.36C43.09 33.1 42.32 33.59 41.1 33.82C42.37 34.48 43.12 35.35 43.19 36.33C43.25 37.19 42.78 37.98 41.88 38.6C43.46 39.03 44.13 39.98 44.2 40.91C44.33 42.51 42.69 44.38 39.7 44.95C40.23 48.36 39.6 50.99 37.98 52.04C37.52 52.34 37.01 52.49 36.48 52.49L36.46 52.51Z" fill="#2846ED"/>
<path d="M39.44 39.6C34.01 39.26 31.61 37.22 31.65 35.47C31.68 34.2 33.04 32.7 36.78 32.65L36.8 33.85C34.12 33.89 32.87 34.73 32.85 35.5C32.82 36.53 34.86 38.11 39.46 38.4L39.5 39L39.44 39.6Z" fill="#2846ED"/>
<path d="M43.17 45.43C41.86 45.43 40.4301 45.32 38.8801 45.06L38.5 45L38.4001 44.62C37.1101 39.72 33.2 37.14 26.8 36.93L26.84 35.73C33.67 35.95 37.9101 38.71 39.4501 43.93C46.7901 45.04 52.51 42.91 55.6101 37.9C58.6 33.07 58.59 26.04 55.6 21.9C54.36 20.19 52.13 18.34 48.51 19.21L48.23 18.04C51.55 17.23 54.5201 18.35 56.5801 21.19C59.84 25.69 59.87 33.3 56.64 38.52C54.94 41.27 51.07 45.41 43.18 45.41L43.17 45.43Z" fill="#2846ED"/>
<path d="M27.95 12.34C27.85 12.34 27.76 12.32 27.67 12.27C27.38 12.11 27.27 11.75 27.42 11.46C29.28 7.97003 32.39 6.78003 36.66 7.94003C36.98 8.03003 37.17 8.36003 37.08 8.68003C36.99 9.00003 36.66 9.19003 36.34 9.10003C32.63 8.10003 30.06 9.06003 28.47 12.03C28.36 12.23 28.15 12.35 27.94 12.35L27.95 12.34Z" fill="#2846ED"/>
<path d="M25.69 11.18C25.63 11.18 25.56 11.18 25.5 11.15C25.19 11.05 25.01 10.71 25.12 10.39C26.18 7.21 28.3 5.39 31.43 5C31.75 4.96 32.06 5.19 32.1 5.52C32.14 5.85 31.91 6.15 31.58 6.19C28.91 6.52 27.17 8.02 26.26 10.77C26.18 11.02 25.94 11.18 25.69 11.18Z" fill="#2846ED"/>
<path d="M41.2 56.41C40.98 56.41 40.77 56.29 40.66 56.08C40.51 55.78 40.63 55.42 40.93 55.27C43.05 54.2 43.72 52.27 43 49.35C42.92 49.03 43.12 48.7 43.44 48.62C43.77 48.53 44.09 48.74 44.17 49.06C45.04 52.56 44.13 55.01 41.47 56.35C41.38 56.39 41.29 56.41 41.2 56.41Z" fill="#2846ED"/>
<path d="M43.9 58.44C43.71 58.44 43.52 58.35 43.41 58.18C43.22 57.91 43.29 57.53 43.56 57.35C46.35 55.42 47.49 52.61 47.05 48.75C47.01 48.42 47.25 48.12 47.58 48.09C47.9 48.05 48.21 48.29 48.24 48.62C48.73 52.9 47.39 56.17 44.24 58.35C44.14 58.42 44.02 58.46 43.9 58.46V58.44Z" fill="#2846ED"/>
</svg>
