<svg width="64" height="64" viewBox="0 0 64 64" fill="none" xmlns="http://www.w3.org/2000/svg">
<path d="M26.2 23.8C25.16 23.8 24.12 23.46 23.22 22.78C20.61 20.8 19.78 16.68 21 11.75C21.08 11.43 21.41 11.23 21.73 11.31C22.05 11.39 22.25 11.72 22.17 12.04C21.07 16.49 21.73 20.14 23.95 21.83C25.18 22.76 26.7 22.87 28.02 22.12C30.38 20.78 31.49 17.27 30.98 12.73C30.94 12.4 31.18 12.1 31.51 12.07C31.83 12.03 32.14 12.27 32.17 12.6C32.73 17.63 31.4 21.58 28.61 23.17C27.85 23.6 27.02 23.82 26.2 23.82V23.8Z" fill="#2846ED"/>
<path d="M42.68 51.35C43.47 58.59 36.36 58.95 37.16 51.44L40.18 35.18C30.19 35.64 33.13 22.08 37.6 14.28L42.69 51.35H42.68Z" fill="#2846ED"/>
<path d="M25.69 23.8C25.69 23.8 25.6 23.8 25.55 23.78C25.23 23.7 25.03 23.4 25.11 23.08L25.94 12.22C25.96 11.89 26.25 11.63 26.58 11.67C26.91 11.69 27.16 11.98 27.13 12.31L26.28 23.32C26.21 23.6 25.96 23.8 25.68 23.8H25.69Z" fill="#2846ED"/>
<path d="M24.02 51.75C23.4 51.75 22.78 51.53 22.22 51.1C20.52 49.8 19.2 46.41 20.57 40.75L25.93 19.86L28.22 41.32C28.67 46.4 27.62 50.15 25.4 51.37C24.95 51.62 24.48 51.74 24.02 51.74V51.75ZM25.44 26.59L21.73 41.04C20.57 45.8 21.51 49.04 22.94 50.14C23.54 50.6 24.19 50.66 24.82 50.32C26.14 49.59 27.5 46.83 27.02 41.43L25.44 26.58V26.59Z" fill="#2846ED"/>
<path d="M25.69 23.83C25.39 23.83 25.13 23.6 25.09 23.29C25.06 22.96 25.29 22.64 25.62 22.61C25.95 22.57 26.24 22.79 26.28 23.12V23.16C26.32 23.49 26.08 23.78 25.75 23.82C25.73 23.82 25.71 23.82 25.69 23.82V23.83Z" fill="#2846ED"/>
<path d="M39.6001 29.4C39.3101 29.4 39.0501 29.18 39.0101 28.88L37.0101 14.37C36.9701 14.04 37.1901 13.74 37.5201 13.69C37.8501 13.64 38.1501 13.87 38.2001 14.2L40.2001 28.71C40.2401 29.04 40.0201 29.34 39.6901 29.39C39.6601 29.39 39.6301 29.39 39.6101 29.39L39.6001 29.4Z" fill="#2846ED"/>
<path d="M39.85 57.52C39.36 57.52 38.86 57.38 38.42 57.1C36.96 56.19 36.28 54.1 36.57 51.37L39.46 35.78C36.97 35.72 35.15 34.78 34.04 32.96C31.07 28.1 34.23 18.94 37.08 13.97L37.96 12.44L43.29 51.25C43.58 53.95 42.86 56.12 41.35 57.07C40.88 57.36 40.37 57.51 39.86 57.51L39.85 57.52ZM40.26 38.07L37.76 51.56C37.53 53.73 38.02 55.44 39.06 56.1C39.57 56.42 40.17 56.41 40.7 56.08C41.56 55.54 42.38 54.04 42.09 51.43L40.26 38.08V38.07ZM37.25 16.2C34.49 21.74 32.89 28.8 35.06 32.35C35.98 33.86 37.58 34.58 39.78 34.6L37.25 16.2Z" fill="#2846ED"/>
<path d="M34.43 13.53C34.43 13.53 34.38 13.53 34.35 13.53C34.02 13.49 33.79 13.18 33.83 12.86C34.17 10.33 35.73 8.71999 38.46 8.08999C38.78 8.00999 39.1 8.21999 39.18 8.53999C39.25 8.85999 39.05 9.18999 38.73 9.25999C36.5 9.76999 35.29 11 35.02 13.02C34.98 13.32 34.72 13.54 34.43 13.54V13.53Z" fill="#2846ED"/>
<path d="M33.1101 10.64C33.0601 10.64 33.0001 10.64 32.9501 10.62C32.6301 10.53 32.4401 10.2 32.5301 9.87999C33.2301 7.35999 35.4101 5.71999 39.0101 5.00999C39.3301 4.94999 39.6501 5.15999 39.7201 5.47999C39.7801 5.80999 39.5701 6.11999 39.2501 6.17999C36.0901 6.79999 34.2701 8.11999 33.6901 10.2C33.6201 10.47 33.3701 10.64 33.1101 10.64Z" fill="#2846ED"/>
<path d="M26.3499 54.95C26.1299 54.95 25.9199 54.83 25.8099 54.62C25.6599 54.32 25.7799 53.96 26.0799 53.82C28.5499 52.58 29.6099 51.03 29.3999 48.93C29.3699 48.6 29.6099 48.31 29.9399 48.27C30.2699 48.24 30.5599 48.48 30.5999 48.81C30.8599 51.4 29.5199 53.45 26.6199 54.9C26.5299 54.94 26.4399 54.96 26.3499 54.96V54.95Z" fill="#2846ED"/>
<path d="M27.14 58.44C26.88 58.44 26.64 58.27 26.56 58C26.47 57.68 26.65 57.35 26.97 57.26C29.54 56.53 30.9 54.74 31.15 51.79C31.18 51.46 31.46 51.2 31.8 51.24C32.13 51.27 32.38 51.56 32.35 51.89C32.06 55.35 30.36 57.55 27.3 58.42C27.25 58.44 27.19 58.44 27.14 58.44Z" fill="#2846ED"/>
</svg>
