<svg width="64" height="64" viewBox="0 0 64 64" fill="none" xmlns="http://www.w3.org/2000/svg">
<path d="M29.9391 41.1408C29.9093 41.1408 29.8794 41.138 29.8491 41.1324C29.5832 41.0829 29.4077 40.8272 29.4572 40.5613C29.606 39.7607 30.0175 39.0931 30.68 38.5771C30.8937 38.411 31.2012 38.4492 31.3677 38.6624C31.5338 38.8761 31.4956 39.1836 31.2823 39.3501C30.8079 39.7196 30.5261 40.1745 30.4211 40.7405C30.3772 40.9761 30.1715 41.1408 29.9401 41.1408H29.9391Z" fill="#2846ED"/>
<path d="M34.1871 41.1408C34.0322 41.1408 33.8796 41.0675 33.7845 40.9304C33.4938 40.5124 33.1551 39.9254 32.7776 39.186C32.6545 38.9447 32.7501 38.6499 32.9913 38.5267C33.2321 38.4036 33.5274 38.4992 33.6505 38.7404C34.0079 39.4402 34.3238 39.9889 34.5892 40.371C34.7437 40.5931 34.6886 40.8982 34.4665 41.0526C34.3812 41.1119 34.2837 41.1403 34.1875 41.1403L34.1871 41.1408Z" fill="#2846ED"/>
<path d="M32.5458 47.9995C31.1246 47.9995 29.8608 47.7686 28.7145 47.309C28.5782 47.2544 28.4737 47.142 28.4299 47.002C28.1042 45.9705 28.1635 45.1699 28.6067 44.6222C29.0989 44.0133 29.9895 43.78 31.329 43.9083C31.6304 43.9373 31.9383 43.8878 32.2192 43.766C35.6926 42.26 37.8551 44.1682 39.3508 45.9985C39.453 46.124 39.4871 46.2915 39.4414 46.4468C39.3956 46.6022 39.2762 46.7249 39.1222 46.7744C36.5945 47.5927 34.432 47.9995 32.5462 47.9995H32.5458ZM29.2995 46.4842C31.5669 47.316 34.3891 47.1821 38.1126 46.0629C37.3848 45.2679 36.7064 44.7556 36.0089 44.4705C34.9858 44.0525 33.8731 44.1155 32.6078 44.6642C32.1753 44.8517 31.7004 44.9273 31.2343 44.8825C30.2751 44.7906 29.6294 44.9133 29.3672 45.2375C29.1301 45.5305 29.1838 46.0419 29.2986 46.4837L29.2995 46.4842Z" fill="#2846ED"/>
<path d="M33.7881 50.8133C33.5758 50.8133 33.3612 50.8077 33.1443 50.796C31.2463 50.6948 29.6153 50.1466 28.7816 49.3301C28.0015 48.5659 27.8923 47.5988 28.4736 46.6069C28.6103 46.3736 28.9108 46.2952 29.1441 46.4319C29.3773 46.5686 29.4557 46.8691 29.319 47.1024C28.9677 47.7014 29.0148 48.1871 29.4669 48.6303C30.1252 49.2751 31.5543 49.7304 33.196 49.8182C34.9027 49.9091 36.5225 49.5942 37.5289 48.976C38.5264 48.3635 38.845 47.5391 38.503 46.4567C38.4214 46.1987 38.5646 45.9234 38.8226 45.8422C39.0806 45.761 39.3559 45.9038 39.4371 46.1618C39.9134 47.6702 39.4175 48.9658 38.0412 49.8112C36.9877 50.4583 35.463 50.8138 33.7867 50.8138L33.7881 50.8133Z" fill="#2846ED"/>
<path d="M32.7608 58C31.2987 58 29.8388 57.7611 28.4406 57.2871C28.3795 57.2661 28.3179 57.2456 28.2568 57.2241C20.7248 54.6273 15.094 47.9482 13.5623 39.7925L10.8717 25.4671C10.8601 25.4059 10.8605 25.343 10.8727 25.2818C11.4834 22.19 12.4902 19.3445 13.8651 16.8242C15.1673 14.4369 16.7965 12.3449 18.707 10.6056C20.5363 8.94002 22.6027 7.61595 24.8486 6.66932C27.0367 5.74695 29.3522 5.20062 31.7298 5.04573C34.1768 4.88617 36.6267 5.14464 39.0112 5.81367C41.4494 6.49763 43.7602 7.59495 45.8788 9.07578C50.4426 12.2651 53.9221 17.1154 55.9404 23.1021C55.9651 23.1758 55.9721 23.2547 55.9605 23.3317L53.7789 37.8343C53.0557 42.6412 50.9866 47.0552 47.7949 50.5991C44.5991 54.1477 40.5023 56.5752 35.9469 57.6193C35.8657 57.638 35.7845 57.6562 35.7029 57.6748C34.7329 57.8922 33.7462 58.0009 32.7608 58.0009V58ZM11.8524 25.3789L14.5253 39.6114C15.9921 47.4219 21.3761 53.8155 28.5759 56.2976C28.6356 56.3181 28.6953 56.3386 28.755 56.3587C30.9254 57.0949 33.254 57.219 35.4883 56.7175C35.5685 56.6997 35.6483 56.6815 35.7281 56.6633C40.0857 55.6645 44.0065 53.3406 47.0671 49.9427C50.13 46.542 52.1161 42.3044 52.8103 37.6879L54.9742 23.3027C53.0179 17.5674 49.6807 12.9267 45.318 9.87825C43.2899 8.46087 41.0789 7.41067 38.7471 6.75657C36.4694 6.11786 34.1297 5.87106 31.7937 6.02315C29.5253 6.17105 27.3167 6.69172 25.2293 7.57163C23.0865 8.47487 21.1139 9.73922 19.3671 11.3292C17.5373 12.9948 15.9758 15.0014 14.7259 17.2926C13.4126 19.7005 12.4463 22.4205 11.8529 25.3789H11.8524Z" fill="#2846ED"/>
<path d="M58.3501 23.1077C55.8937 33.9018 46.0178 45.2165 35.4323 36.2723C33.8185 34.9086 31.0098 34.4416 29.4156 35.8277C21.3532 42.8343 13.2142 39.5097 6.48987 25.4899C14.2579 21.3908 22.3521 22.1858 30.7584 27.6556C32.2322 28.6144 34.1348 28.599 35.5979 27.6239C43.6454 22.2586 51.1218 21.6511 58.3501 23.1077Z" fill="white"/>
<path d="M43.2446 39.9968C42.4981 39.9968 41.7507 39.9142 41.0052 39.7481C39.0079 39.304 37.0264 38.2603 35.1164 36.646C33.7023 35.4512 31.1451 34.973 29.7371 36.1967C26.2715 39.2088 22.7761 40.3761 19.3489 39.6669C16.9391 39.1682 14.5887 37.7312 12.3632 35.3952C10.1378 33.0597 8.01312 29.798 6.04848 25.7013C5.93465 25.4638 6.02889 25.1792 6.2617 25.056C10.1984 22.9785 14.2924 22.1172 18.4298 22.4961C22.5209 22.8702 26.7586 24.4682 31.0261 27.2446C32.3353 28.0961 34.0232 28.0849 35.3268 27.2157C39.2234 24.6179 43.107 23.0177 47.2 22.3239C50.7612 21.7202 54.4404 21.8196 58.4476 22.6267C58.5768 22.6528 58.6906 22.7298 58.762 22.8408C58.8334 22.9519 58.8577 23.0867 58.8283 23.2155C58.0197 26.7678 56.4386 30.3033 54.3765 33.1707C52.1081 36.3251 49.4054 38.495 46.5608 39.4463C45.4654 39.8125 44.3564 39.9959 43.2451 39.9963L43.2446 39.9968ZM31.8785 34.5046C33.2786 34.5046 34.7366 35.043 35.749 35.8982C37.5368 37.4088 39.3774 38.3825 41.2184 38.7922C42.897 39.1654 44.5901 39.0735 46.2501 38.5178C48.8987 37.6323 51.4335 35.5856 53.581 32.5997C55.4738 29.9683 56.9458 26.7515 57.7557 23.4912C49.731 21.9871 42.764 23.4352 35.8703 28.0317C34.2407 29.1183 32.1295 29.1318 30.4919 28.0667C26.3597 25.3779 22.2713 23.8323 18.3407 23.4726C14.5415 23.125 10.7756 23.8766 7.13974 25.7069C9.00127 29.5092 10.9962 32.5404 13.0729 34.7206C15.1583 36.9096 17.3366 38.2514 19.5476 38.7087C22.66 39.3525 25.8722 38.2594 29.0946 35.4587C29.8593 34.7943 30.8535 34.505 31.8785 34.505V34.5046Z" fill="#2846ED"/>
<path d="M17.2345 18.8084C17.0679 18.8084 16.9056 18.7235 16.8137 18.5705C16.6746 18.3386 16.7498 18.0377 16.9821 17.8987C18.5744 16.9441 19.9573 16.3427 21.21 16.06C22.6651 15.7316 23.971 15.8426 25.0917 16.3899C25.3347 16.5084 25.4355 16.8018 25.317 17.0449C25.1985 17.288 24.905 17.3887 24.662 17.2702C23.734 16.8172 22.6754 16.7337 21.426 17.016C20.2769 17.2754 18.9883 17.839 17.4864 18.7394C17.4076 18.7865 17.3208 18.8094 17.235 18.8094L17.2345 18.8084Z" fill="#2846ED"/>
<path d="M50.5835 20.8436C50.5228 20.8436 50.4613 20.8324 50.4015 20.8081C46.4279 19.2163 43.7887 19.0698 42.0946 20.3476C41.8786 20.5105 41.5716 20.4675 41.4083 20.2515C41.2455 20.0355 41.2884 19.7285 41.5044 19.5652C42.6078 18.7329 43.9809 18.3965 45.7015 18.5374C47.1114 18.6531 48.7677 19.0982 50.7655 19.8983C51.0165 19.9991 51.1387 20.2842 51.0379 20.5352C50.9614 20.7265 50.7776 20.8431 50.583 20.8431L50.5835 20.8436Z" fill="#2846ED"/>
<path d="M53.714 26.5737C54.2314 26.7155 54.4857 27.3024 54.2295 27.7732C52.1543 31.5868 49.2846 34.22 45.9618 36.179C44.3574 37.1247 42.4137 37.3197 40.6581 36.6983C38.6431 35.9849 37.0498 34.5965 35.6642 32.8763C35.1164 32.197 35.2522 31.1953 35.9632 30.6887C41.5935 26.6759 47.4623 24.861 53.714 26.5737Z" fill="#2846ED"/>
<path d="M28.7821 30.3415C29.4931 30.8482 29.6293 31.8499 29.0812 32.5292C27.6955 34.2494 26.1022 35.6378 24.0872 36.3512C22.332 36.9731 20.3879 36.7781 18.7835 35.8319C15.4602 33.8724 12.591 31.2392 10.5158 27.4261C10.2596 26.9553 10.5139 26.3684 11.0313 26.2266C17.2826 24.5139 23.1518 26.3288 28.7821 30.3415Z" fill="#2846ED"/>
<path d="M21.9929 37.2012C20.7929 37.2012 19.5999 36.8816 18.5348 36.2536C14.7968 34.0497 12.0334 31.2387 10.0856 27.6598C9.89244 27.3043 9.87285 26.8867 10.0315 26.514C10.191 26.1389 10.5088 25.8617 10.9021 25.754C13.9878 24.9086 17.1356 24.8778 20.2592 25.6616C23.169 26.3922 26.05 27.7923 29.0667 29.9422C29.5211 30.266 29.8132 30.7488 29.8892 31.3022C29.9643 31.848 29.809 32.4074 29.4628 32.8362C27.8467 34.8423 26.1419 36.1431 24.251 36.8121C23.5166 37.0724 22.7533 37.2007 21.9929 37.2007V37.2012ZM11.161 26.6987C11.0579 26.7272 10.9748 26.7995 10.9328 26.8979C10.9091 26.9544 10.8787 27.0673 10.9464 27.1919C12.807 30.6103 15.4518 33.2985 19.0326 35.4097C20.5223 36.2877 22.305 36.4627 23.9239 35.8888C25.6627 35.2734 27.1804 34.108 28.7 32.2213C28.8801 31.9983 28.9575 31.7193 28.9183 31.4351C28.8796 31.1524 28.7303 30.9051 28.498 30.74C22.5028 26.4673 16.8314 25.1451 11.161 26.6983V26.6987Z" fill="#2846ED"/>
<path d="M42.7529 37.5488C41.9924 37.5488 41.2292 37.42 40.4948 37.1602C38.6039 36.4911 36.8991 35.1904 35.283 33.1838C34.9373 32.755 34.7819 32.1956 34.857 31.6498C34.9331 31.0964 35.2251 30.6135 35.6796 30.2898C38.6958 28.1399 41.5767 26.7398 44.4866 26.0092C47.6102 25.2249 50.758 25.2562 53.8437 26.1015C54.237 26.2093 54.5543 26.4865 54.7143 26.8616C54.8729 27.2343 54.8533 27.6519 54.6602 28.0074C52.7123 31.5863 49.9485 34.3973 46.2105 36.6012C45.1459 37.2288 43.9524 37.5488 42.7525 37.5488H42.7529ZM48.9991 26.4183C44.8375 26.4183 40.6292 27.9649 36.2478 31.088C36.0155 31.2537 35.8662 31.5005 35.827 31.7837C35.7878 32.0673 35.8657 32.3463 36.0453 32.5693C37.5654 34.456 39.083 35.6215 40.8214 36.2369C42.4403 36.8103 44.2235 36.6358 45.7127 35.7577C49.2935 33.6466 51.9383 30.9583 53.7989 27.5395C53.8666 27.4154 53.8363 27.302 53.8125 27.246C53.7705 27.1476 53.6874 27.0752 53.5843 27.0468C52.0582 26.6287 50.5317 26.4188 48.9986 26.4188L48.9991 26.4183Z" fill="#2846ED"/>
</svg>
