<svg width="64" height="64" viewBox="0 0 64 64" fill="none" xmlns="http://www.w3.org/2000/svg">
<path d="M27.8001 14.4658C17.5953 24.2887 17.733 44.1888 25.2895 31.0823C23.4238 46.6303 23.9301 51.5701 25.0655 54.4036C25.3379 55.0833 25.7307 55.6587 26.373 56.041C28.4885 57.3 30.9204 55.5333 32.4165 51.6238C38.0074 63.5732 43.4184 52.5753 38.0668 31.0775C44.6942 45.1407 47.2897 20.9893 35.0094 14.329" fill="#2846ED"/>
<path d="M36.8667 57C36.0234 57 35.2729 56.491 34.7476 56.004C33.9747 55.2874 33.204 54.1907 32.4495 52.7363C31.4799 54.8378 30.2103 56.2381 28.8167 56.722C27.9065 57.0378 26.98 56.9397 26.1367 56.4374C25.4711 56.041 24.9802 55.4317 24.637 54.5747C23.477 51.6792 23.03 46.8437 24.5926 33.0672C24.1056 33.7764 23.6411 34.354 23.2033 34.7939C22.4352 35.5655 21.7287 35.9271 21.1032 35.8686C20.6624 35.8273 20.0615 35.5624 19.702 34.5348C19.0602 32.7008 19.4359 29.1142 20.6584 25.3982C22.1172 20.9634 24.5398 16.9628 27.4798 14.1328L28.1203 14.7984C25.2868 17.5259 22.9486 21.3927 21.5356 25.6868C20.2132 29.7072 20.0997 32.8741 20.574 34.2295C20.6831 34.5414 20.8784 34.9193 21.189 34.9483C21.4863 34.9765 22.6336 34.7631 24.8891 30.8505C24.9986 30.6605 25.227 30.5738 25.435 30.6429C25.6431 30.7119 25.7738 30.9182 25.7478 31.136C24.8794 38.3709 24.476 43.7251 24.5139 47.5048C24.5442 50.5398 24.8464 52.614 25.4944 54.2303C25.7632 54.9012 26.1173 55.3499 26.6092 55.6429C27.2193 56.0062 27.8603 56.0753 28.5136 55.8483C29.8258 55.3925 31.091 53.7921 31.9849 51.4575C32.0514 51.2846 32.2146 51.1676 32.3998 51.161C32.5859 51.1548 32.7561 51.2591 32.8349 51.4267C34.3799 54.7287 36.0331 56.4409 37.2582 56.0062C37.864 55.7915 38.4117 55.0705 38.8432 53.921C39.3201 52.6497 39.6338 50.8794 39.7504 48.8017C40.0174 44.0387 39.2603 37.7831 37.6185 31.1875C37.5613 30.957 37.688 30.7203 37.9119 30.6407C38.1359 30.561 38.3835 30.664 38.4847 30.8791C40.3328 34.8009 41.4911 34.9756 41.8021 34.9356C42.3115 34.87 42.7545 34.0843 42.9881 32.8332C43.4536 30.3402 42.9996 26.6766 41.832 23.4995C40.796 20.6814 38.7333 16.8726 34.789 14.7333L35.2293 13.9212C39.427 16.1978 41.6081 20.2133 42.6987 23.1806C43.3299 24.8984 43.769 26.7518 43.9687 28.5405C44.1548 30.2082 44.1297 31.751 43.8961 33.0021C43.5763 34.7165 42.8742 35.7283 41.92 35.851C41.8545 35.8594 41.788 35.8638 41.7221 35.8638C40.9276 35.8638 40.0935 35.2576 39.2273 34.0544C39.735 36.4528 40.1177 38.7734 40.3702 40.9844C40.701 43.8817 40.8031 46.5287 40.6724 48.8528C40.5488 51.0537 40.2246 52.8679 39.7081 54.2448C39.1705 55.6776 38.4504 56.5632 37.567 56.8764C37.3286 56.9608 37.0941 56.9982 36.8667 56.9982V57Z" fill="#2846ED"/>
<path d="M31.3635 16.2919C33.8018 16.2919 35.7785 14.3153 35.7785 11.8769C35.7785 9.43858 33.8018 7.46191 31.3635 7.46191C28.9251 7.46191 26.9485 9.43858 26.9485 11.8769C26.9485 14.3153 28.9251 16.2919 31.3635 16.2919Z" fill="white"/>
<path d="M31.3635 16.7543C28.6743 16.7543 26.4866 14.5666 26.4866 11.8774C26.4866 9.18814 28.6743 7 31.3635 7C34.0527 7 36.2404 9.1877 36.2404 11.8769C36.2404 14.5661 34.0527 16.7538 31.3635 16.7538V16.7543ZM31.3635 7.92382C29.1837 7.92382 27.4104 9.69713 27.4104 11.8769C27.4104 14.0567 29.1837 15.83 31.3635 15.83C33.5433 15.83 35.3166 14.0567 35.3166 11.8769C35.3166 9.69713 33.5433 7.92382 31.3635 7.92382Z" fill="#2846ED"/>
<path d="M18.0053 37.6437C17.9089 37.6437 17.8122 37.6138 17.7295 37.5517C16.6644 36.7568 15.9381 35.983 15.4428 35.1168C14.8348 34.054 14.5964 32.8789 14.7138 31.5258C14.7358 31.2715 14.9597 31.0836 15.214 31.1056C15.4683 31.1276 15.6561 31.3515 15.6341 31.6058C15.4494 33.7311 16.2417 35.2879 18.2824 36.8118C18.487 36.9644 18.5288 37.2539 18.3761 37.4585C18.2855 37.5799 18.1465 37.6441 18.0057 37.6441L18.0053 37.6437Z" fill="#2846ED"/>
<path d="M18.0665 41.9742C18.0141 41.9742 17.9609 41.9654 17.909 41.9465C16.5413 41.4498 15.4881 40.665 14.6897 39.5467C13.7971 38.2974 13.2454 36.6675 13.003 34.5634C12.974 34.31 13.1557 34.0808 13.4091 34.0518C13.6625 34.0227 13.8917 34.2044 13.9207 34.4578C14.3356 38.0589 15.7033 40.1626 18.224 41.0781C18.4637 41.1652 18.5873 41.43 18.5007 41.6698C18.4325 41.8576 18.2552 41.9742 18.0665 41.9742Z" fill="#2846ED"/>
<path d="M43.7018 39.2564C43.5118 39.2564 43.3336 39.1381 43.2667 38.9489C43.1814 38.7087 43.3072 38.4443 43.5474 38.359C46.0747 37.4611 47.5497 36.0908 48.0574 34.1688C48.1225 33.922 48.3755 33.7751 48.6218 33.8402C48.8686 33.9053 49.0155 34.1582 48.9504 34.4046C48.6443 35.5651 48.0275 36.5694 47.1177 37.3907C46.2815 38.1456 45.2147 38.747 43.8566 39.2296C43.8056 39.2476 43.7533 39.2564 43.7022 39.2564H43.7018Z" fill="#2846ED"/>
<path d="M43.063 42.6653C42.8347 42.6653 42.6363 42.4964 42.6055 42.2637C42.572 42.0107 42.7502 41.7789 43.0032 41.7455C44.4061 41.5607 45.6708 41.1384 46.7636 40.4913C47.8343 39.8569 48.774 38.985 49.557 37.9002C49.7062 37.6934 49.9952 37.6463 50.2019 37.7959C50.4087 37.945 50.4553 38.2341 50.3062 38.4408C48.5738 40.8415 46.1574 42.2615 43.1241 42.6614C43.1039 42.664 43.0832 42.6653 43.063 42.6653Z" fill="#2846ED"/>
</svg>
