<svg width="64" height="64" viewBox="0 0 64 64" fill="none" xmlns="http://www.w3.org/2000/svg">
<path d="M27.6 25.73C25.05 25.73 22.97 23.65 22.97 21.1C22.97 18.55 25.05 16.47 27.6 16.47C30.15 16.47 32.23 18.55 32.23 21.1C32.23 23.65 30.15 25.73 27.6 25.73ZM27.6 17.67C25.71 17.67 24.17 19.21 24.17 21.1C24.17 22.99 25.71 24.53 27.6 24.53C29.49 24.53 31.03 22.99 31.03 21.1C31.03 19.21 29.49 17.67 27.6 17.67Z" fill="#2846ED"/>
<path d="M35.87 26.48C33.55 26.48 31.67 24.59 31.67 22.28C31.67 19.97 33.56 18.08 35.87 18.08C38.18 18.08 40.07 19.97 40.07 22.28C40.07 24.59 38.18 26.48 35.87 26.48ZM35.87 19.27C34.21 19.27 32.87 20.62 32.87 22.27C32.87 23.92 34.22 25.27 35.87 25.27C37.52 25.27 38.87 23.92 38.87 22.27C38.87 20.62 37.52 19.27 35.87 19.27Z" fill="#2846ED"/>
<path d="M25.72 10.65C25.46 10.65 25.22 10.48 25.15 10.22C24.58 8.33999 24.83 6.42999 25.91 4.55999C26.08 4.26999 26.44 4.16999 26.73 4.33999C27.02 4.50999 27.12 4.86999 26.95 5.15999C26.03 6.74999 25.82 8.28999 26.3 9.86999C26.4 10.19 26.22 10.52 25.9 10.62C25.84 10.64 25.78 10.65 25.73 10.65H25.72Z" fill="#2846ED"/>
<path d="M24.07 13.05C23.88 13.05 23.7 12.96 23.58 12.8C22.11 10.75 21.93 8.54998 23.02 6.07998C23.15 5.77998 23.51 5.63998 23.81 5.76998C24.11 5.89998 24.25 6.25998 24.12 6.55998C23.2 8.63998 23.34 10.4 24.55 12.1C24.74 12.37 24.68 12.74 24.41 12.94C24.3 13.02 24.18 13.05 24.06 13.05H24.07Z" fill="#2846ED"/>
<path d="M41.64 16.96C41.43 16.96 41.23 16.85 41.12 16.66C40.95 16.37 41.05 16.01 41.34 15.84C42.44 15.2 42.99 14.08 43.03 12.43C43.03 12.1 43.33 11.84 43.64 11.84C43.97 11.84 44.23 12.12 44.23 12.45C44.19 14.52 43.42 16.01 41.95 16.87C41.85 16.93 41.75 16.95 41.65 16.95L41.64 16.96Z" fill="#2846ED"/>
<path d="M43.72 19.63C43.52 19.63 43.32 19.53 43.21 19.34C43.04 19.06 43.13 18.69 43.41 18.52C44.6 17.8 45.21 16.83 45.28 15.53C45.3 15.2 45.58 14.95 45.91 14.96C46.24 14.98 46.49 15.26 46.48 15.59C46.39 17.29 45.57 18.62 44.03 19.55C43.93 19.61 43.83 19.64 43.72 19.64V19.63Z" fill="#2846ED"/>
<path d="M34.36 9.26002C38.42 -2.33998 49.71 10.76 32.82 15.51C31.52 14.57 29.3 10.05 29.02 8.69002C27.98 3.75002 36.09 2.95002 34.36 9.27002C34.27 9.52002 34.19 9.78002 34.11 10.06C34.21 9.79002 34.29 9.52002 34.36 9.27002V9.26002Z" fill="#2846ED"/>
<path d="M34.1 10.65C34.04 10.65 33.97 10.65 33.91 10.62C33.6 10.52 33.43 10.19 33.52 9.88003C33.6 9.60003 33.69 9.33003 33.78 9.07003C33.89 8.76003 34.22 8.60003 34.53 8.70003C34.84 8.80003 35.02 9.12003 34.93 9.43003C34.86 9.70003 34.77 9.97003 34.66 10.26C34.57 10.5 34.34 10.65 34.1 10.65Z" fill="#2846ED"/>
<path d="M32.82 16.11C32.7 16.11 32.57 16.07 32.47 16C31.04 14.96 28.74 10.31 28.43 8.80998C28.07 7.11998 28.65 5.60998 29.96 4.75998C31.19 3.95998 32.82 3.95998 33.9 4.75998C34.29 5.04998 34.8 5.56998 35.05 6.44998C36.72 3.93998 38.65 3.93998 39.32 4.02998C41.01 4.25998 42.28 5.71998 42.41 7.58998C42.61 10.36 40.23 14.05 32.97 16.08C32.92 16.1 32.86 16.1 32.81 16.1L32.82 16.11ZM31.99 5.34998C31.52 5.34998 31.04 5.48998 30.61 5.75998C29.72 6.33998 29.35 7.35998 29.6 8.55998C29.85 9.74998 31.76 13.69 32.96 14.84C39.28 12.99 41.38 9.93998 41.22 7.66998C41.13 6.36998 40.28 5.35998 39.16 5.20998C37.89 5.03998 36.11 6.06998 34.92 9.45998C34.81 9.75998 34.49 9.92998 34.17 9.82998C33.86 9.72998 33.68 9.40998 33.77 9.09998C34.2 7.50998 34 6.30998 33.19 5.71998C32.85 5.46998 32.43 5.34998 31.98 5.34998H31.99Z" fill="#2846ED"/>
<path d="M24.68 59.2C24.36 59.2 24.05 59.14 23.76 59.01C21.12 57.9 20.21 51.92 20.68 38.48C19.6 39.38 18.62 39.71 17.77 39.45C16.87 39.18 16.26 38.27 16.07 36.89C15.57 33.45 17.67 26.5 23.74 22.53L24.4 23.53C19.01 27.05 16.79 33.45 17.26 36.72C17.39 37.6 17.7 38.17 18.12 38.3C18.74 38.49 19.77 37.85 20.89 36.6C21.06 36.41 21.33 36.35 21.56 36.44C21.79 36.53 21.94 36.77 21.93 37.02C21.71 42.38 21.12 56.6 24.21 57.91C25.25 58.34 26.77 57.06 27.86 55.91C27.98 55.78 28.15 55.71 28.33 55.72C28.51 55.72 28.67 55.82 28.78 55.96C29.6 57.04 30.37 57.61 31.06 57.65C31.51 57.67 31.96 57.48 32.43 57.04C31.65 54.37 31.16 50.88 32.32 39.34C31.52 40.04 30.78 40.33 30.11 40.22C29.63 40.14 28.98 39.82 28.59 38.74C27.49 35.72 29.02 28.94 32.65 24.73L33.56 25.51C29.96 29.69 28.86 35.99 29.72 38.33C29.83 38.62 30.02 38.99 30.31 39.03C30.5 39.06 31.23 39.03 32.64 37.24C32.81 37.03 33.09 36.96 33.34 37.06C33.59 37.16 33.74 37.41 33.71 37.68C32.28 50.95 32.88 54.41 33.69 57.03C33.75 57.24 33.7 57.46 33.56 57.62C32.76 58.48 31.9 58.87 31.01 58.84C30.08 58.79 29.18 58.26 28.27 57.21C26.91 58.54 25.73 59.19 24.69 59.19L24.68 59.2Z" fill="#2846ED"/>
<path d="M41.4 58.98C40.36 58.98 39.34 57.96 38.36 55.93C37.53 57.65 36.45 58.71 35.29 58.89C34.61 59 33.59 58.86 32.63 57.57L33.59 56.85C34.08 57.5 34.58 57.79 35.1 57.7C36.05 57.55 37.08 56.2 37.77 54.19C37.85 53.95 38.07 53.79 38.32 53.79C38.56 53.79 38.8 53.93 38.89 54.17C40.11 57.26 41.11 57.9 41.53 57.76C43.03 57.32 44.43 50.24 41.9 37.73C41.84 37.42 42.02 37.12 42.32 37.03C42.62 36.94 42.94 37.1 43.05 37.39C44.13 40.23 44.84 40.22 44.9 40.22C45.1 40.2 45.49 39.72 45.73 38.51C46.4 35.03 45.17 27.28 39.21 24.28L39.75 23.21C46.06 26.38 47.75 34.35 46.91 38.74C46.59 40.39 45.92 41.34 45.01 41.42C44.56 41.45 44.12 41.29 43.7 40.9C45.21 50.49 44.51 58.12 41.89 58.9C41.73 58.95 41.57 58.97 41.41 58.97L41.4 58.98Z" fill="#2846ED"/>
</svg>
