<svg width="64" height="64" viewBox="0 0 64 64" fill="none" xmlns="http://www.w3.org/2000/svg">
<path d="M28.4199 21.65C28.9599 21.65 29.3999 21.14 29.3999 20.52C29.3999 19.9 28.9599 19.39 28.4199 19.39C27.8799 19.39 27.4399 19.9 27.4399 20.52C27.4399 21.14 27.8799 21.65 28.4199 21.65Z" fill="#2846ED"/>
<path d="M28.42 22.25C27.55 22.25 26.84 21.47 26.84 20.52C26.84 19.57 27.55 18.79 28.42 18.79C29.29 18.79 30 19.57 30 20.52C30 21.47 29.29 22.25 28.42 22.25ZM28.42 20C28.21 20 28.04 20.24 28.04 20.53C28.04 20.82 28.21 21.06 28.42 21.06C28.63 21.06 28.8 20.82 28.8 20.53C28.8 20.24 28.63 20 28.42 20Z" fill="#2846ED"/>
<path d="M20.5699 21.4C21.1199 21.4 21.5699 20.95 21.5699 20.4C21.5699 19.85 21.1199 19.4 20.5699 19.4C20.0199 19.4 19.5699 19.85 19.5699 20.4C19.5699 20.95 20.0199 21.4 20.5699 21.4Z" fill="#2846ED"/>
<path d="M20.57 22C19.69 22 18.97 21.28 18.97 20.4C18.97 19.52 19.69 18.8 20.57 18.8C21.45 18.8 22.17 19.52 22.17 20.4C22.17 21.28 21.45 22 20.57 22ZM20.57 20C20.35 20 20.17 20.18 20.17 20.4C20.17 20.62 20.35 20.8 20.57 20.8C20.79 20.8 20.97 20.62 20.97 20.4C20.97 20.18 20.79 20 20.57 20Z" fill="#2846ED"/>
<path d="M17.18 15.11C16.93 10.82 18.2 7.67001 21.19 5.17001C21.32 5.06001 21.5 5.01001 21.67 5.04001C21.84 5.07001 21.99 5.17001 22.09 5.32001C23.27 7.26001 23.86 9.40001 23.89 11.88H22.69C22.67 9.91001 22.25 8.16001 21.42 6.58001C19.14 8.74001 18.17 11.45 18.38 15.05L17.18 15.12V15.11Z" fill="#2846ED"/>
<path d="M35.3499 16.36L34.2999 15.78C35.2899 13.99 35.9499 11.41 32.6099 7.05998C32.2299 9.40998 31.6099 11.28 30.7099 12.76L29.6899 12.14C30.6599 10.54 31.2899 8.37998 31.6099 5.54998C31.6399 5.30998 31.7999 5.10998 32.0299 5.03998C32.2599 4.96998 32.5099 5.03998 32.6599 5.21998C36.3399 9.50998 37.1999 13.05 35.3499 16.37V16.36Z" fill="#2846ED"/>
<path d="M25.24 23.31H22.81C22.48 23.31 22.21 23.04 22.21 22.71C22.21 22.38 22.48 22.11 22.81 22.11H25.24C25.57 22.11 25.84 22.38 25.84 22.71C25.84 23.04 25.57 23.31 25.24 23.31Z" fill="#2846ED"/>
<path d="M34.88 29.27L35.69 34.47H17.75L17.4 29.91C19.44 32.32 22.49 33.84 25.89 33.84C29.59 33.84 32.86 32.04 34.89 29.27H34.88Z" fill="#2846ED"/>
<path d="M34.88 29.27C32.85 32.04 29.58 33.84 25.88 33.84C22.48 33.84 19.43 32.31 17.39 29.91L34.88 29.27Z" fill="#2846ED"/>
<path d="M25.88 34.44C22.43 34.44 19.17 32.93 16.93 30.3C15.13 28.18 14.14 25.49 14.14 22.71C14.14 16.24 19.41 10.97 25.88 10.97C32.35 10.97 37.62 16.24 37.62 22.71C37.62 25.22 36.84 27.61 35.37 29.63L34.4 28.92C35.72 27.11 36.42 24.96 36.42 22.71C36.42 16.9 31.69 12.17 25.88 12.17C20.07 12.17 15.34 16.9 15.34 22.71C15.34 25.21 16.23 27.63 17.84 29.53C19.85 31.89 22.78 33.25 25.88 33.25C29.23 33.25 32.41 31.63 34.39 28.92L35.36 29.63C33.15 32.65 29.61 34.45 25.88 34.45V34.44Z" fill="#2846ED"/>
<path d="M27.44 28.15C26.05 28.15 24.6 27.3 23.53 25.81L23.42 25.65V22.7C23.42 22.37 23.69 22.1 24.02 22.1C24.35 22.1 24.62 22.37 24.62 22.7V25.26C25.64 26.59 26.98 27.21 28.09 26.84C29.06 26.52 29.62 25.49 29.6 24.08C29.6 23.75 29.86 23.48 30.19 23.47C30.52 23.47 30.78 23.73 30.79 24.06C30.82 26.02 29.95 27.48 28.46 27.97C28.13 28.08 27.78 28.13 27.44 28.13V28.15Z" fill="#2846ED"/>
<path d="M21.5301 27.95C21.4501 27.95 21.3801 27.95 21.3001 27.94C20.5301 27.87 19.1501 27.36 18.4801 24.81C18.4001 24.49 18.5901 24.16 18.9101 24.08C19.2301 24 19.5601 24.19 19.6401 24.51C19.9901 25.86 20.6401 26.68 21.4101 26.75C22.1801 26.82 23.0101 26.21 23.4801 25.21C23.6201 24.91 23.9801 24.78 24.2801 24.93C24.5801 25.07 24.7101 25.43 24.5601 25.73C23.9101 27.09 22.7201 27.95 21.5201 27.95H21.5301Z" fill="#2846ED"/>
<path d="M41.84 58.47H10L10.14 57.75C10.85 54.25 12.87 52.05 16.16 51.22L16.78 29.89L17.98 29.93L17.33 52.19L16.87 52.29C14.02 52.88 12.25 54.52 11.49 57.27H41.01C41.33 56.43 41.68 55.57 42.02 54.71C43.8 50.27 45.82 45.24 44.24 43.54C43.28 42.51 40.91 42.58 37.19 43.76L36.41 44.01V43.19C36.38 39.35 35.69 34.84 34.29 29.41L35.45 29.11C36.78 34.26 37.49 38.62 37.59 42.38C41.46 41.26 43.86 41.37 45.11 42.72C47.2 44.98 45.22 49.92 43.12 55.15C42.73 56.13 42.33 57.12 41.97 58.08L41.82 58.47H41.84Z" fill="#2846ED"/>
<path d="M36.39 35.07H17.19L16.74 29.34L35.39 28.65L36.39 35.07ZM18.3 33.87H34.99L34.37 29.89L18.04 30.49L18.3 33.87Z" fill="#2846ED"/>
<path d="M18.11 58.47C18.05 58.47 17.98 58.46 17.92 58.44C17.61 58.33 17.44 57.99 17.54 57.68C18.52 54.75 20.5 52.94 23.42 52.31V40.14C23.42 39.81 23.69 39.54 24.02 39.54C24.35 39.54 24.62 39.81 24.62 40.14V53.31L24.12 53.39C21.36 53.85 19.58 55.38 18.68 58.06C18.6 58.31 18.36 58.47 18.11 58.47Z" fill="#2846ED"/>
<path d="M27.11 58.47C27.11 58.47 27.06 58.47 27.04 58.47C26.71 58.43 26.47 58.14 26.51 57.81C26.84 54.92 28.67 53.25 31.94 52.87C31.97 50.83 32.65 48.56 34.03 45.96C34.18 45.67 34.54 45.55 34.84 45.71C35.13 45.86 35.25 46.23 35.09 46.52C33.69 49.17 33.06 51.41 33.15 53.39L33.18 53.97L32.6 54.01C29.54 54.23 27.99 55.48 27.71 57.94C27.68 58.25 27.42 58.47 27.11 58.47Z" fill="#2846ED"/>
<path d="M41.54 58.46L41.33 57.28C45.24 56.58 47.89 54.91 49.43 52.18C52.18 47.3 51.29 38.72 46.78 26.68C42.41 32.43 40.45 36.66 40.96 39.28C41.16 40.33 41.76 41.13 42.79 41.73L42.19 42.77C40.86 42 40.05 40.91 39.78 39.51C39.17 36.37 41.36 31.65 46.49 25.1C46.62 24.93 46.83 24.85 47.05 24.88C47.26 24.91 47.44 25.06 47.52 25.26C52.56 38.36 53.52 47.37 50.47 52.78C48.77 55.79 45.77 57.71 41.54 58.47V58.46Z" fill="#2846ED"/>
<path d="M52.02 30.63C51.7 30.63 51.44 30.38 51.42 30.06C51.23 26.24 50.85 22.33 48.59 20.13C48.35 19.9 48.35 19.52 48.58 19.28C48.81 19.04 49.19 19.04 49.43 19.27C52 21.77 52.42 25.95 52.62 30C52.64 30.33 52.38 30.61 52.05 30.63C52.04 30.63 52.03 30.63 52.02 30.63Z" fill="#2846ED"/>
<path d="M54.2001 25.29C53.8801 25.29 53.6201 25.04 53.6001 24.72C53.4801 21.97 53.0801 19.27 51.0101 18.15C50.7201 17.99 50.6101 17.63 50.7701 17.34C50.9301 17.05 51.2901 16.94 51.5801 17.1C54.1901 18.51 54.6701 21.72 54.8001 24.68C54.8101 25.01 54.5601 25.29 54.2301 25.31C54.2301 25.31 54.2101 25.31 54.2001 25.31V25.29Z" fill="#2846ED"/>
</svg>
