<svg width="64" height="64" viewBox="0 0 64 64" fill="none" xmlns="http://www.w3.org/2000/svg">
<path d="M50.13 58.29H14.48C13.84 58.29 13.28 57.91 13.05 57.32C12.82 56.73 12.97 56.07 13.43 55.63L20.71 48.81C20.82 48.71 20.97 48.65 21.12 48.65H43.71C43.87 48.65 44.01 48.71 44.13 48.82L51.21 55.65C51.66 56.09 51.8 56.75 51.57 57.33C51.33 57.91 50.77 58.29 50.14 58.29H50.13ZM21.35 49.84L14.25 56.5C14.1 56.64 14.14 56.81 14.17 56.87C14.2 56.93 14.28 57.08 14.48 57.08H50.13C50.34 57.08 50.42 56.93 50.44 56.87C50.47 56.81 50.51 56.64 50.36 56.5L43.46 49.84H21.35Z" fill="#2846ED"/>
<path d="M53.6901 20.3C54.9001 23.16 55.5201 26.21 55.5201 29.34C55.5201 32.47 54.9101 35.52 53.6901 38.38C52.5201 41.15 50.8501 43.63 48.7101 45.76C46.5801 47.89 44.0901 49.57 41.3301 50.74C38.4701 51.95 35.4201 52.57 32.2901 52.57C29.1601 52.57 26.1101 51.96 23.2501 50.74C20.4801 49.57 18.0001 47.9 15.8701 45.76C13.7401 43.63 12.0601 41.14 10.8901 38.38C9.68006 35.52 9.06006 32.47 9.06006 29.34C9.06006 26.21 9.67006 23.16 10.8901 20.3C12.0601 17.53 13.7301 15.05 15.8701 12.92C18.0101 10.79 20.4901 9.10999 23.2501 7.93999C26.1101 6.72999 29.1601 6.10999 32.2901 6.10999C35.4201 6.10999 38.4701 6.71999 41.3301 7.93999C44.1001 9.10999 46.5801 10.78 48.7101 12.92C50.8401 15.05 52.5201 17.54 53.6901 20.3ZM54.4901 29.34C54.4901 26.34 53.9001 23.44 52.7501 20.7C51.6301 18.06 50.0301 15.68 47.9901 13.64C45.9501 11.6 43.5801 9.99999 40.9301 8.87999C38.1901 7.71999 35.2901 7.13999 32.2901 7.13999C29.2901 7.13999 26.3901 7.72999 23.6501 8.87999C21.0101 9.99999 18.6301 11.6 16.5901 13.64C14.5501 15.68 12.9501 18.05 11.8301 20.7C10.6701 23.44 10.0901 26.34 10.0901 29.34C10.0901 32.34 10.6801 35.24 11.8301 37.98C12.9501 40.62 14.5501 43 16.5901 45.04C18.6301 47.08 21.0001 48.68 23.6501 49.8C26.3901 50.96 29.2901 51.54 32.2901 51.54C35.2901 51.54 38.1901 50.95 40.9301 49.8C43.5701 48.68 45.9501 47.08 47.9901 45.04C50.0301 43 51.6301 40.63 52.7501 37.98C53.9101 35.24 54.4901 32.34 54.4901 29.34Z" fill="#2846ED"/>
<path d="M52.74 20.7C53.9 23.44 54.48 26.34 54.48 29.34C54.48 32.34 53.89 35.24 52.74 37.98C51.62 40.62 50.02 43 47.98 45.04C45.94 47.08 43.57 48.68 40.92 49.8C38.18 50.96 35.28 51.54 32.28 51.54C29.28 51.54 26.38 50.95 23.64 49.8C21 48.68 18.62 47.08 16.58 45.04C14.54 43 12.94 40.63 11.82 37.98C10.66 35.24 10.08 32.34 10.08 29.34C10.08 26.34 10.67 23.44 11.82 20.7C12.94 18.06 14.54 15.68 16.58 13.64C18.62 11.6 20.99 10 23.64 8.88001C26.38 7.72001 29.28 7.14001 32.28 7.14001C35.28 7.14001 38.18 7.73001 40.92 8.88001C43.56 10 45.94 11.6 47.98 13.64C50.02 15.68 51.62 18.05 52.74 20.7ZM50.63 29.7C50.63 27.22 50.14 24.81 49.19 22.55C48.26 20.36 46.94 18.4 45.25 16.71C43.56 15.02 41.6 13.7 39.41 12.77C37.15 11.81 34.74 11.33 32.26 11.33C29.78 11.33 27.37 11.82 25.11 12.77C22.92 13.7 20.96 15.02 19.27 16.71C17.58 18.4 16.26 20.36 15.33 22.55C14.37 24.81 13.89 27.22 13.89 29.7C13.89 32.18 14.38 34.59 15.33 36.85C16.26 39.04 17.58 41 19.27 42.69C20.96 44.38 22.92 45.7 25.11 46.63C27.37 47.59 29.78 48.07 32.26 48.07C34.74 48.07 37.15 47.58 39.41 46.63C41.6 45.7 43.56 44.38 45.25 42.69C46.94 41 48.26 39.04 49.19 36.85C50.15 34.59 50.63 32.18 50.63 29.7Z" fill="#2846ED"/>
<path d="M49.19 22.55C50.15 24.81 50.63 27.22 50.63 29.7C50.63 32.18 50.14 34.59 49.19 36.85C48.26 39.04 46.94 41 45.25 42.69C43.56 44.38 41.6 45.7 39.41 46.63C37.15 47.59 34.74 48.07 32.26 48.07C29.78 48.07 27.37 47.58 25.11 46.63C22.92 45.7 20.96 44.38 19.27 42.69C17.58 41 16.26 39.04 15.33 36.85C14.37 34.59 13.89 32.18 13.89 29.7C13.89 27.22 14.38 24.81 15.33 22.55C16.26 20.36 17.58 18.4 19.27 16.71C20.96 15.02 22.92 13.7 25.11 12.77C27.37 11.81 29.78 11.33 32.26 11.33C34.74 11.33 37.15 11.82 39.41 12.77C41.6 13.7 43.56 15.02 45.25 16.71C46.94 18.4 48.26 20.36 49.19 22.55ZM49.61 29.7C49.61 25.07 47.81 20.71 44.53 17.43C41.25 14.15 36.9 12.35 32.26 12.35C27.62 12.35 23.27 14.15 19.99 17.43C16.71 20.71 14.91 25.06 14.91 29.7C14.91 34.34 16.71 38.69 19.99 41.97C23.27 45.25 27.62 47.05 32.26 47.05C36.9 47.05 41.25 45.25 44.53 41.97C47.81 38.69 49.61 34.34 49.61 29.7Z" fill="#2846ED"/>
<path d="M47.29 53.48H17.48C17.15 53.48 16.88 53.21 16.88 52.88C16.88 52.55 17.15 52.28 17.48 52.28H47.29C47.62 52.28 47.89 52.55 47.89 52.88C47.89 53.21 47.62 53.48 47.29 53.48Z" fill="#2846ED"/>
<path d="M34.0799 5.59998H30.6999C28.7599 5.59998 27.1899 7.16998 27.1899 9.10998V9.41998C27.1899 11.36 28.7599 12.93 30.6999 12.93H34.0799C36.0199 12.93 37.5899 11.36 37.5899 9.41998V9.10998C37.5899 7.16998 36.0199 5.59998 34.0799 5.59998Z" fill="white"/>
<path d="M34.08 13.52H30.7C28.44 13.52 26.59 11.68 26.59 9.40999V9.09999C26.59 6.83999 28.43 4.98999 30.7 4.98999H34.08C36.34 4.98999 38.19 6.82999 38.19 9.09999V9.40999C38.19 11.67 36.35 13.52 34.08 13.52ZM30.7 6.19999C29.1 6.19999 27.79 7.49999 27.79 9.10999V9.41999C27.79 11.02 29.09 12.33 30.7 12.33H34.08C35.68 12.33 36.99 11.03 36.99 9.41999V9.10999C36.99 7.50999 35.69 6.19999 34.08 6.19999H30.7Z" fill="#2846ED"/>
<path d="M33.98 46.63H30.6C28.66 46.63 27.09 48.2 27.09 50.14V50.45C27.09 52.39 28.66 53.96 30.6 53.96H33.98C35.92 53.96 37.49 52.39 37.49 50.45V50.14C37.49 48.2 35.92 46.63 33.98 46.63Z" fill="white"/>
<path d="M33.98 54.55H30.6C28.34 54.55 26.49 52.71 26.49 50.44V50.14C26.49 47.88 28.33 46.03 30.6 46.03H33.98C36.24 46.03 38.09 47.87 38.09 50.14V50.44C38.09 52.7 36.25 54.55 33.98 54.55ZM30.6 47.23C29 47.23 27.69 48.53 27.69 50.14V50.44C27.69 52.04 28.99 53.35 30.6 53.35H33.98C35.58 53.35 36.89 52.05 36.89 50.44V50.14C36.89 48.54 35.59 47.23 33.98 47.23H30.6Z" fill="#2846ED"/>
<path d="M32.36 31.22C33.17 31.22 33.82 30.56 33.82 29.76C33.82 28.96 33.16 28.3 32.36 28.3C31.56 28.3 30.9 28.96 30.9 29.76C30.9 30.56 31.56 31.22 32.36 31.22Z" fill="white"/>
<path d="M32.3601 31.82C31.2201 31.82 30.3 30.89 30.3 29.76C30.3 28.63 31.2301 27.7 32.3601 27.7C33.4901 27.7 34.42 28.63 34.42 29.76C34.42 30.89 33.4901 31.82 32.3601 31.82ZM32.3601 28.89C31.8801 28.89 31.5 29.28 31.5 29.75C31.5 30.22 31.8901 30.61 32.3601 30.61C32.8301 30.61 33.22 30.22 33.22 29.75C33.22 29.28 32.8301 28.89 32.3601 28.89Z" fill="#2846ED"/>
<path d="M32.36 28.89C32.03 28.89 31.76 28.62 31.76 28.29V12.94C31.76 12.61 32.03 12.34 32.36 12.34C32.69 12.34 32.96 12.61 32.96 12.94V28.29C32.96 28.62 32.69 28.89 32.36 28.89Z" fill="#2846ED"/>
<path d="M32.4101 47.26C32.0801 47.26 31.8101 46.99 31.8101 46.66V31.75C31.8101 31.42 32.0801 31.15 32.4101 31.15C32.7401 31.15 33.0101 31.42 33.0101 31.75V46.66C33.0101 46.99 32.7401 47.26 32.4101 47.26Z" fill="#2846ED"/>
<path d="M30.87 30.33H15.52C15.19 30.33 14.92 30.06 14.92 29.73C14.92 29.4 15.19 29.13 15.52 29.13H30.87C31.2 29.13 31.47 29.4 31.47 29.73C31.47 30.06 31.2 30.33 30.87 30.33Z" fill="#2846ED"/>
<path d="M49.24 30.28H34.33C34 30.28 33.73 30.01 33.73 29.68C33.73 29.35 34 29.08 34.33 29.08H49.24C49.57 29.08 49.84 29.35 49.84 29.68C49.84 30.01 49.57 30.28 49.24 30.28Z" fill="#2846ED"/>
<path d="M33.66 28.9C33.51 28.9 33.35 28.84 33.24 28.72C33.01 28.49 33.01 28.11 33.24 27.87L43.67 17.44C43.9 17.21 44.28 17.21 44.52 17.44C44.76 17.67 44.75 18.05 44.52 18.29L34.09 28.72C33.97 28.84 33.82 28.9 33.67 28.9H33.66Z" fill="#2846ED"/>
<path d="M20.29 42.34C20.14 42.34 19.98 42.28 19.87 42.16C19.64 41.93 19.64 41.55 19.87 41.31L30.41 30.77C30.64 30.54 31.02 30.54 31.26 30.77C31.5 31 31.49 31.38 31.26 31.62L20.72 42.16C20.6 42.28 20.45 42.34 20.3 42.34H20.29Z" fill="#2846ED"/>
<path d="M31.17 29.28C31.02 29.28 30.86 29.22 30.75 29.1L19.9 18.25C19.67 18.02 19.67 17.64 19.9 17.4C20.13 17.16 20.51 17.17 20.75 17.4L31.6 28.25C31.83 28.48 31.83 28.86 31.6 29.1C31.48 29.22 31.33 29.28 31.18 29.28H31.17Z" fill="#2846ED"/>
<path d="M44.2 42.23C44.05 42.23 43.89 42.17 43.78 42.05L33.24 31.51C33.01 31.28 33.01 30.9 33.24 30.66C33.47 30.42 33.85 30.43 34.09 30.66L44.63 41.2C44.86 41.43 44.86 41.81 44.63 42.05C44.51 42.17 44.36 42.23 44.21 42.23H44.2Z" fill="#2846ED"/>
<path d="M13.49 25.39H10.11C8.16998 25.39 6.59998 26.96 6.59998 28.9V29.21C6.59998 31.15 8.16998 32.72 10.11 32.72H13.49C15.43 32.72 17 31.15 17 29.21V28.9C17 26.96 15.43 25.39 13.49 25.39Z" fill="white"/>
<path d="M13.49 33.3H10.11C7.85 33.3 6 31.46 6 29.19V28.88C6 26.62 7.84 24.77 10.11 24.77H13.49C15.75 24.77 17.6 26.61 17.6 28.88V29.19C17.6 31.45 15.76 33.3 13.49 33.3ZM10.11 25.99C8.51 25.99 7.2 27.29 7.2 28.9V29.21C7.2 30.81 8.5 32.12 10.11 32.12H13.49C15.09 32.12 16.4 30.82 16.4 29.21V28.9C16.4 27.3 15.1 25.99 13.49 25.99H10.11Z" fill="#2846ED"/>
<path d="M54.1799 25.39H50.7999C48.8599 25.39 47.2899 26.96 47.2899 28.9V29.21C47.2899 31.15 48.8599 32.72 50.7999 32.72H54.1799C56.1199 32.72 57.6899 31.15 57.6899 29.21V28.9C57.6899 26.96 56.1199 25.39 54.1799 25.39Z" fill="white"/>
<path d="M54.1799 33.3H50.7999C48.5399 33.3 46.6899 31.46 46.6899 29.19V28.88C46.6899 26.62 48.5299 24.77 50.7999 24.77H54.1799C56.4399 24.77 58.2899 26.61 58.2899 28.88V29.19C58.2899 31.45 56.4499 33.3 54.1799 33.3ZM50.7999 25.99C49.1999 25.99 47.8899 27.29 47.8899 28.9V29.21C47.8899 30.81 49.1899 32.12 50.7999 32.12H54.1799C55.7799 32.12 57.0899 30.82 57.0899 29.21V28.9C57.0899 27.3 55.7899 25.99 54.1799 25.99H50.7999Z" fill="#2846ED"/>
<path d="M49.01 12.11H45.63C43.69 12.11 42.12 13.68 42.12 15.62V15.93C42.12 17.87 43.69 19.44 45.63 19.44H49.01C50.95 19.44 52.52 17.87 52.52 15.93V15.62C52.52 13.68 50.95 12.11 49.01 12.11Z" fill="white"/>
<path d="M49.01 20.03H45.63C43.37 20.03 41.52 18.19 41.52 15.92V15.61C41.52 13.35 43.36 11.5 45.63 11.5H49.01C51.27 11.5 53.12 13.34 53.12 15.61V15.92C53.12 18.18 51.28 20.03 49.01 20.03ZM45.63 12.71C44.03 12.71 42.72 14.01 42.72 15.62V15.93C42.72 17.53 44.02 18.84 45.63 18.84H49.01C50.61 18.84 51.92 17.54 51.92 15.93V15.62C51.92 14.02 50.62 12.71 49.01 12.71H45.63Z" fill="#2846ED"/>
<path d="M18.66 12.11H15.28C13.34 12.11 11.77 13.68 11.77 15.62V15.93C11.77 17.87 13.34 19.44 15.28 19.44H18.66C20.6 19.44 22.17 17.87 22.17 15.93V15.62C22.17 13.68 20.6 12.11 18.66 12.11Z" fill="white"/>
<path d="M18.66 20.03H15.28C13.02 20.03 11.17 18.19 11.17 15.92V15.61C11.17 13.35 13.01 11.5 15.28 11.5H18.66C20.92 11.5 22.77 13.34 22.77 15.61V15.92C22.77 18.18 20.93 20.03 18.66 20.03ZM15.28 12.71C13.68 12.71 12.37 14.01 12.37 15.62V15.93C12.37 17.53 13.67 18.84 15.28 18.84H18.66C20.26 18.84 21.57 17.54 21.57 15.93V15.62C21.57 14.02 20.27 12.71 18.66 12.71H15.28Z" fill="#2846ED"/>
<path d="M49.15 38.68H45.77C43.83 38.68 42.26 40.25 42.26 42.19V42.5C42.26 44.44 43.83 46.01 45.77 46.01H49.15C51.09 46.01 52.66 44.44 52.66 42.5V42.19C52.66 40.25 51.09 38.68 49.15 38.68Z" fill="white"/>
<path d="M49.15 46.6H45.77C43.51 46.6 41.66 44.76 41.66 42.49V42.19C41.66 39.93 43.5 38.08 45.77 38.08H49.15C51.41 38.08 53.26 39.92 53.26 42.19V42.49C53.26 44.75 51.42 46.6 49.15 46.6ZM45.77 39.28C44.17 39.28 42.86 40.58 42.86 42.19V42.49C42.86 44.09 44.16 45.4 45.77 45.4H49.15C50.75 45.4 52.06 44.1 52.06 42.49V42.19C52.06 40.59 50.76 39.28 49.15 39.28H45.77Z" fill="#2846ED"/>
<path d="M18.8 38.68H15.42C13.48 38.68 11.91 40.25 11.91 42.19V42.5C11.91 44.44 13.48 46.01 15.42 46.01H18.8C20.74 46.01 22.31 44.44 22.31 42.5V42.19C22.31 40.25 20.74 38.68 18.8 38.68Z" fill="white"/>
<path d="M18.8001 46.6H15.4201C13.1601 46.6 11.3101 44.76 11.3101 42.49V42.19C11.3101 39.93 13.1501 38.08 15.4201 38.08H18.8001C21.0601 38.08 22.9101 39.92 22.9101 42.19V42.49C22.9101 44.75 21.0701 46.6 18.8001 46.6ZM15.4201 39.28C13.8201 39.28 12.5101 40.58 12.5101 42.19V42.49C12.5101 44.09 13.8101 45.4 15.4201 45.4H18.8001C20.4001 45.4 21.7101 44.1 21.7101 42.49V42.19C21.7101 40.59 20.4101 39.28 18.8001 39.28H15.4201Z" fill="#2846ED"/>
</svg>
