<svg width="64" height="64" viewBox="0 0 64 64" fill="none" xmlns="http://www.w3.org/2000/svg">
<path d="M31.64 30.64C31.53 30.64 31.41 30.61 31.31 30.54L27.77 28.25C27.49 28.07 27.41 27.7 27.59 27.42C27.77 27.14 28.14 27.06 28.42 27.24L31.96 29.53C32.24 29.71 32.32 30.08 32.14 30.36C32.03 30.54 31.83 30.63 31.64 30.63V30.64Z" fill="#2846ED"/>
<path d="M28.39 32.02C28.29 32.02 28.18 31.99 28.09 31.94C27.8 31.77 27.71 31.41 27.87 31.12L29.35 28.59C29.52 28.3 29.88 28.21 30.17 28.37C30.46 28.54 30.55 28.9 30.39 29.19L28.91 31.72C28.8 31.91 28.6 32.02 28.39 32.02Z" fill="#2846ED"/>
<path d="M24.37 34.08C24.31 34.08 24.25 34.08 24.2 34.05C23.13 33.73 21.81 32.99 20.05 31.74C19.78 31.55 19.72 31.17 19.91 30.9C20.1 30.63 20.48 30.57 20.75 30.76C22.4 31.93 23.61 32.61 24.55 32.9C24.87 33 25.05 33.33 24.95 33.65C24.87 33.91 24.63 34.08 24.38 34.08H24.37Z" fill="#2846ED"/>
<path d="M27.72 34.1L27 35.87L28.1 36.33L28.98 34.1H27.71H27.72Z" fill="#2846ED"/>
<path d="M28.1 36.93C28.02 36.93 27.94 36.92 27.87 36.88L26.77 36.42C26.47 36.29 26.32 35.95 26.45 35.64L27.17 33.87C27.26 33.64 27.48 33.5 27.73 33.5H29C29.2 33.5 29.38 33.6 29.5 33.76C29.61 33.92 29.63 34.13 29.56 34.32L28.68 36.55C28.62 36.7 28.5 36.82 28.36 36.88C28.29 36.91 28.21 36.93 28.13 36.93H28.1Z" fill="#2846ED"/>
<path d="M24.37 36.93C24.21 36.93 24.06 36.87 23.95 36.76C23.81 36.62 23.75 36.43 23.78 36.24L24.49 31.81C24.52 31.6 24.67 31.42 24.87 31.34C25.07 31.26 25.3 31.3 25.47 31.44L28.11 33.64C28.31 33.81 28.38 34.08 28.28 34.33L27.56 36.1C27.48 36.29 27.31 36.43 27.11 36.47L24.48 36.93C24.48 36.93 24.41 36.93 24.38 36.93H24.37ZM25.51 33.04L25.1 35.59L26.57 35.33L27 34.28L25.51 33.04Z" fill="#2846ED"/>
<path d="M30.75 39.02C30.58 39.02 30.42 38.95 30.3 38.82L28.53 36.82C28.39 36.66 28.35 36.45 28.4 36.25L28.94 34.42C29.01 34.17 29.24 34 29.5 33.99L32.93 33.92C33.15 33.92 33.35 34.03 33.46 34.21C33.57 34.39 33.57 34.63 33.46 34.81L31.25 38.71C31.15 38.88 30.98 38.99 30.79 39.01C30.77 39.01 30.75 39.01 30.73 39.01L30.75 39.02ZM29.65 36.27L30.64 37.39L31.91 35.14L29.97 35.18L29.65 36.27Z" fill="#2846ED"/>
<path d="M38.47 40.7C38.28 40.7 38.1 40.61 37.98 40.45C37.09 39.19 35.99 38.56 34.62 38.52C33.3 38.32 31.95 38.01 31.43 37.16C31.26 36.88 31.35 36.51 31.63 36.33C31.91 36.16 32.28 36.25 32.45 36.53C32.59 36.75 33.09 37.07 34.72 37.32C36.39 37.36 37.84 38.18 38.95 39.75C39.14 40.02 39.08 40.39 38.81 40.59C38.7 40.67 38.58 40.7 38.46 40.7H38.47Z" fill="#2846ED"/>
<path d="M23.66 14.39C23.4 14.39 23.17 14.23 23.09 13.97C22.39 11.74 22.96 9.52002 24.63 8.05002C26.15 6.70002 28.19 6.31002 29.82 7.04002C30.89 7.52002 32.67 8.91002 32.67 12.84C32.67 13.17 32.4 13.44 32.07 13.44C31.74 13.44 31.47 13.17 31.47 12.84C31.47 10.43 30.71 8.76002 29.33 8.14002C28.14 7.60002 26.57 7.93002 25.42 8.95002C24.8 9.50002 23.43 11.07 24.23 13.62C24.33 13.94 24.15 14.27 23.84 14.37C23.78 14.39 23.72 14.4 23.66 14.4V14.39Z" fill="#2846ED"/>
<path d="M25.8501 12.57C24.9001 9.53997 29.7701 8.03997 29.7701 12.31L25.8501 12.57Z" fill="#2846ED"/>
<path d="M25.85 13.17C25.59 13.17 25.36 13.01 25.28 12.75C24.92 11.62 25.21 10.5 26.04 9.75997C26.83 9.05997 27.92 8.86997 28.81 9.26997C29.39 9.52997 30.37 10.28 30.37 12.31C30.37 12.64 30.1 12.91 29.77 12.91C29.44 12.91 29.17 12.64 29.17 12.31C29.17 11.3 28.87 10.61 28.32 10.36C27.86 10.16 27.27 10.28 26.84 10.66C26.36 11.08 26.21 11.71 26.42 12.39C26.52 12.71 26.34 13.04 26.03 13.14C25.97 13.16 25.91 13.17 25.85 13.17Z" fill="#2846ED"/>
<path d="M45.14 21.38C47.91 19.82 50.56 24.22 46.38 25.1L45.14 21.38Z" fill="#2846ED"/>
<path d="M46.3699 25.7C46.0899 25.7 45.8399 25.51 45.7799 25.22C45.7099 24.9 45.92 24.58 46.24 24.51C47.2 24.31 47.7999 23.89 47.9199 23.33C48.0199 22.86 47.7699 22.31 47.2999 21.97C47.0399 21.78 46.3299 21.39 45.4199 21.9C45.1299 22.06 44.7599 21.96 44.5999 21.67C44.4399 21.38 44.54 21.02 44.83 20.85C45.89 20.25 47.0799 20.31 48.0099 21C48.8699 21.63 49.2899 22.65 49.09 23.58C48.9599 24.18 48.45 25.26 46.49 25.67C46.45 25.67 46.4099 25.68 46.3699 25.68V25.7Z" fill="#2846ED"/>
<path d="M46.15 28.43C45.83 28.43 45.57 28.18 45.55 27.87C45.53 27.54 45.78 27.26 46.11 27.24C48.78 27.08 49.76 25.25 50.05 24.47C50.6 23.04 50.34 21.45 49.42 20.53C48.35 19.46 46.52 19.34 44.26 20.19C43.95 20.31 43.6 20.15 43.49 19.84C43.37 19.53 43.53 19.18 43.84 19.07C47.51 17.68 49.45 18.86 50.27 19.68C51.54 20.95 51.89 23 51.17 24.89C50.38 26.97 48.51 28.29 46.18 28.43C46.17 28.43 46.16 28.43 46.14 28.43H46.15Z" fill="#2846ED"/>
<path d="M26.76 25.5499C27.45 25.5499 28 24.9899 28 24.3099C28 23.6299 27.44 23.0699 26.76 23.0699C26.08 23.0699 25.52 23.6299 25.52 24.3099C25.52 24.9899 26.08 25.5499 26.76 25.5499Z" fill="#2846ED"/>
<path d="M26.76 26.15C25.74 26.15 24.92 25.32 24.92 24.31C24.92 23.3 25.75 22.47 26.76 22.47C27.77 22.47 28.6 23.3 28.6 24.31C28.6 25.32 27.77 26.15 26.76 26.15ZM26.76 23.66C26.41 23.66 26.12 23.95 26.12 24.3C26.12 24.65 26.41 24.94 26.76 24.94C27.11 24.94 27.4 24.65 27.4 24.3C27.4 23.95 27.11 23.66 26.76 23.66Z" fill="#2846ED"/>
<path d="M35.1699 30.13C35.8599 30.13 36.4099 29.57 36.4099 28.89C36.4099 28.21 35.8499 27.65 35.1699 27.65C34.4899 27.65 33.9299 28.21 33.9299 28.89C33.9299 29.57 34.4899 30.13 35.1699 30.13Z" fill="#2846ED"/>
<path d="M35.17 30.73C34.15 30.73 33.33 29.9 33.33 28.89C33.33 27.88 34.16 27.05 35.17 27.05C36.18 27.05 37.01 27.88 37.01 28.89C37.01 29.9 36.18 30.73 35.17 30.73ZM35.17 28.25C34.82 28.25 34.53 28.54 34.53 28.89C34.53 29.24 34.82 29.53 35.17 29.53C35.52 29.53 35.81 29.24 35.81 28.89C35.81 28.54 35.52 28.25 35.17 28.25Z" fill="#2846ED"/>
<path d="M23.37 42.8C24.09 43.91 27.32 44.27 29.11 44.1C25.19 44.89 21.34 52.31 26.42 55.51C23.62 54.47 20.71 53.05 17.67 51.26C21.75 51.79 22.9 47.61 23.24 42.79H23.35L23.37 42.8Z" fill="#2846ED"/>
<path d="M40.21 51.26C39.69 51.45 39.11 51.53 38.47 51.49H35.98C36.75 48.61 37.08 45.53 35.65 41.7L38.47 40.1C38.94 39.83 39.38 39.66 39.79 39.6C37.32 40.74 37.47 50.83 40.21 51.26Z" fill="#2846ED"/>
<path d="M30.63 57.2C29.42 57.2 27.94 56.82 26.19 56.07C23.43 55.04 20.48 53.61 17.45 51.82C14.67 51.07 12.94 49.71 12.29 47.77C11.13 44.29 13.42 39.16 19.72 31.15C15.36 18.92 20.15 14.68 23.42 13.23C25.87 12.15 28.97 11.92 32.36 12.57C37.29 13.52 41.94 16.17 44.51 19.5C46.55 22.14 47.16 25.03 46.28 27.85C45.1 31.63 41.37 35.09 35.18 38.14L36 40.81L38.17 39.58C38.69 39.28 39.2 39.09 39.7 39.01C41.58 38.72 43.14 40.08 43.78 42.58C44.69 46.12 43.56 50.68 40.41 51.82C39.8 52.04 39.14 52.13 38.42 52.08H36.07L34.86 52.51C34.62 54.63 33.95 55.96 32.76 56.66C32.16 57.02 31.45 57.2 30.62 57.2H30.63ZM28.74 13.42C26.93 13.42 25.28 13.73 23.9 14.33C18.87 16.55 17.83 22.49 20.96 31.05C21.03 31.25 21 31.46 20.87 31.63C17.04 36.48 12.09 43.39 13.43 47.39C13.95 48.96 15.39 50.03 17.84 50.68C17.89 50.69 17.94 50.72 17.99 50.74C20.99 52.51 23.9 53.93 26.64 54.95C29.22 56.06 31.07 56.28 32.16 55.63C33.04 55.1 33.55 53.92 33.72 52.02C33.74 51.78 33.9 51.58 34.12 51.51L35.78 50.93C35.84 50.91 35.91 50.9 35.98 50.9H38.47C39.05 50.94 39.55 50.87 40.01 50.71C42.5 49.81 43.39 45.87 42.62 42.9C42.39 42 41.68 39.94 39.89 40.21C39.54 40.27 39.17 40.41 38.77 40.64L35.95 42.24C35.79 42.33 35.6 42.34 35.43 42.28C35.26 42.21 35.13 42.07 35.08 41.9L33.88 38.03C33.79 37.75 33.93 37.44 34.19 37.31C40.26 34.4 44.05 31.01 45.13 27.52C46.09 24.45 44.8 21.88 43.55 20.26C41.16 17.15 36.78 14.67 32.13 13.78C30.96 13.56 29.82 13.44 28.73 13.44L28.74 13.42Z" fill="#2846ED"/>
<path d="M18.36 51.9C18.12 51.9 17.86 51.88 17.6 51.85C17.27 51.81 17.04 51.51 17.08 51.18C17.12 50.85 17.43 50.62 17.75 50.66C18.8 50.8 19.64 50.59 20.32 50.04C21.62 48.98 22.38 46.59 22.65 42.75C22.72 41.71 22.77 40.54 22.78 39.06C22.78 38.73 23.05 38.47 23.38 38.47C23.71 38.47 23.98 38.75 23.97 39.08C23.95 40.59 23.91 41.78 23.83 42.84C23.53 47.09 22.65 49.68 21.06 50.98C20.3 51.6 19.38 51.91 18.33 51.91L18.36 51.9Z" fill="#2846ED"/>
<path d="M26.43 56.11C26.32 56.11 26.21 56.08 26.11 56.02C23.99 54.69 23.04 52.45 23.51 49.9C24.07 46.82 26.49 44.02 29 43.51C30.08 43.29 31.12 43.52 31.99 44.18C33.63 45.42 34.62 48.06 34.92 52.02C34.94 52.35 34.7 52.64 34.37 52.66C34.04 52.68 33.75 52.44 33.73 52.11C33.39 47.62 32.21 45.84 31.27 45.13C30.67 44.68 29.99 44.53 29.24 44.68C27.24 45.08 25.16 47.57 24.7 50.11C24.48 51.31 24.45 53.55 26.76 55C27.04 55.18 27.12 55.55 26.95 55.83C26.84 56.01 26.64 56.11 26.44 56.11H26.43Z" fill="#2846ED"/>
<path d="M35.98 52.09C35.93 52.09 35.88 52.09 35.82 52.07C35.5 51.98 35.31 51.65 35.4 51.33C36.06 48.86 36.54 45.81 35.09 41.91C34.97 41.6 35.13 41.25 35.44 41.14C35.75 41.03 36.1 41.18 36.21 41.49C37.78 45.71 37.26 48.99 36.55 51.64C36.48 51.91 36.24 52.09 35.97 52.09H35.98Z" fill="#2846ED"/>
<path d="M40.21 51.86C40.21 51.86 40.15 51.86 40.12 51.86C38.85 51.66 37.96 50.13 37.6 47.56C37.2 44.68 37.54 40 39.54 39.07C39.84 38.93 40.2 39.07 40.34 39.36C40.48 39.66 40.34 40.02 40.05 40.16C38.97 40.66 38.35 44.24 38.79 47.4C39.09 49.55 39.77 50.6 40.31 50.68C40.64 50.73 40.86 51.04 40.81 51.37C40.76 51.67 40.51 51.88 40.22 51.88L40.21 51.86Z" fill="#2846ED"/>
<path d="M28.2 44.74C26.33 44.74 23.66 44.34 22.87 43.13C22.69 42.85 22.77 42.48 23.05 42.3C23.33 42.12 23.7 42.2 23.88 42.48C24.37 43.24 27.19 43.69 29.06 43.51C29.39 43.48 29.73 43.72 29.76 44.04C29.79 44.37 29.6 44.66 29.27 44.69H29.18C28.9 44.72 28.57 44.73 28.2 44.73V44.74Z" fill="#2846ED"/>
<path d="M16.98 15.9C16.73 15.9 16.5 15.75 16.42 15.5C15.05 11.7 16.28 8.53001 20.07 6.09001C20.35 5.91001 20.72 5.99001 20.9 6.27001C21.08 6.55001 21 6.92001 20.72 7.10001C17.42 9.23001 16.38 11.85 17.55 15.1C17.66 15.41 17.5 15.76 17.19 15.87C17.12 15.89 17.05 15.91 16.99 15.91L16.98 15.9Z" fill="#2846ED"/>
<path d="M14.5499 16.83C14.3399 16.83 14.1399 16.72 14.0299 16.53C12.3399 13.54 12.4099 10.7 14.2599 8.06C14.4499 7.79 14.8199 7.72 15.0999 7.91C15.3699 8.1 15.4399 8.47 15.2499 8.75C13.6699 11.01 13.6199 13.36 15.0799 15.94C15.2399 16.23 15.1399 16.59 14.8499 16.76C14.7599 16.81 14.6499 16.84 14.5499 16.84V16.83Z" fill="#2846ED"/>
<path d="M45.15 53.05C44.93 53.05 44.72 52.93 44.61 52.72C44.46 52.42 44.58 52.06 44.88 51.91C47.05 50.82 47.75 48.83 47 45.84C46.92 45.52 47.12 45.19 47.44 45.11C47.76 45.03 48.09 45.23 48.17 45.55C49.06 49.12 48.13 51.62 45.42 52.98C45.33 53.02 45.24 53.04 45.15 53.04V53.05Z" fill="#2846ED"/>
<path d="M47.9 55.13C47.71 55.13 47.52 55.04 47.41 54.87C47.22 54.6 47.29 54.22 47.56 54.04C50.42 52.06 51.59 49.18 51.13 45.23C51.09 44.9 51.33 44.6 51.66 44.57C51.97 44.53 52.29 44.77 52.32 45.1C52.82 49.47 51.45 52.81 48.24 55.03C48.14 55.1 48.02 55.14 47.9 55.14V55.13Z" fill="#2846ED"/>
</svg>
