<svg width="64" height="64" viewBox="0 0 64 64" fill="none" xmlns="http://www.w3.org/2000/svg">
<path d="M20.2299 34.04C19.1499 24.52 21.7199 16.75 27.1199 13.28C30.4699 11.12 34.4699 11.03 37.8199 13.04C43.2799 16.3 45.9499 23.95 45.1499 34.03L43.9499 33.93C44.6999 24.47 42.1799 17.04 37.1999 14.07C34.2499 12.31 30.7199 12.39 27.7699 14.29C22.7699 17.51 20.3899 24.85 21.4199 33.91L20.2299 34.04Z" fill="#2846ED"/>
<path d="M16.69 20.9C16.61 20.9 16.54 20.89 16.46 20.86C16.15 20.74 16.01 20.38 16.13 20.08C17.82 15.93 19.78 11.74 23.35 10.07C23.65 9.92999 24.01 10.07 24.15 10.36C24.29 10.66 24.15 11.02 23.86 11.16C20.68 12.64 18.84 16.6 17.24 20.53C17.15 20.76 16.92 20.9 16.68 20.9H16.69Z" fill="#2846ED"/>
<path d="M16.36 14.52C16.29 14.52 16.21 14.51 16.14 14.48C15.83 14.36 15.68 14.01 15.81 13.7C17.01 10.68 18.68 7.52 21.89 7C22.21 6.95 22.52 7.17 22.58 7.5C22.63 7.83 22.41 8.13 22.08 8.19C19.47 8.6 18.06 11.3 16.92 14.14C16.83 14.37 16.6 14.52 16.36 14.52Z" fill="#2846ED"/>
<path d="M56.2 40.55C55.78 42.31 55.21 43.93 54.45 45.39C52 50.09 45.88 51.4 41.71 48.12C40.43 47.12 39.21 46.11 38 45.26C34.27 42.64 29.12 43.43 26.39 47.07C26.35 47.13 26.31 47.18 26.27 47.24C24.02 50.3 20.03 51.52 16.46 50.19C13.62 49.13 11.12 47.52 9.15002 45.08L56.21 40.54L56.2 40.55Z" fill="white"/>
<path d="M54.45 45.39C55.21 43.93 55.78 42.31 56.2 40.55C55.41 44.66 54.36 48.69 52.95 52.62C51.95 55.41 49.51 57.24 46.79 57.24H17.67C14.94 57.24 12.48 55.4 11.5 52.6C10.62 50.09 9.84002 47.58 9.15002 45.07C11.12 47.51 13.62 49.12 16.46 50.18C20.02 51.51 24.02 50.29 26.27 47.23C26.31 47.17 26.35 47.12 26.39 47.06C29.13 43.42 34.27 42.63 38 45.25C39.21 46.1 40.44 47.11 41.71 48.11C45.88 51.38 52 50.08 54.45 45.38V45.39Z" fill="#2846ED"/>
<path d="M46.7899 57.85H17.6699C14.6999 57.85 11.9899 55.82 10.9299 52.81C10.0499 50.3 9.24995 47.76 8.56995 45.24L9.72995 44.92C10.4099 47.41 11.1999 49.93 12.0699 52.41C12.9599 54.95 15.2099 56.65 17.6799 56.65H46.7999C49.2799 56.65 51.4799 54.99 52.3999 52.42C53.7399 48.68 54.7899 44.76 55.6199 40.44L56.7999 40.67C55.9599 45.05 54.8899 49.03 53.5299 52.83C52.4399 55.88 49.7999 57.85 46.7999 57.85H46.7899Z" fill="#2846ED"/>
<path d="M8.57 45.24C6.64 38.18 5.45 31 5.04 23.88L5 23.25H58.81L58.77 23.89C58.39 30.2 57.75 35.69 56.79 40.67L55.61 40.44C56.53 35.68 57.16 30.44 57.53 24.45H6.27C6.71 31.28 7.87 38.17 9.72 44.93L8.56 45.25L8.57 45.24Z" fill="#2846ED"/>
<path d="M19.37 51.32C18.32 51.32 17.26 51.14 16.25 50.76C13.09 49.58 10.61 47.85 8.68002 45.46C8.47002 45.2 8.51002 44.83 8.77002 44.62C9.03002 44.41 9.41002 44.45 9.61002 44.71C11.4 46.92 13.71 48.54 16.66 49.64C19.94 50.86 23.69 49.73 25.77 46.89L25.89 46.73C28.84 42.81 34.3 41.96 38.33 44.78C39.26 45.43 40.17 46.16 41.14 46.92L42.07 47.65C43.92 49.1 46.3 49.65 48.6 49.16C50.89 48.67 52.83 47.19 53.91 45.12C54.61 43.77 55.18 42.19 55.61 40.42C55.67 40.15 55.91 39.95 56.2 39.95C56.53 39.95 56.8 40.22 56.8 40.55C56.8 40.62 56.79 40.7 56.76 40.77C56.33 42.6 55.74 44.23 54.98 45.68C53.73 48.07 51.5 49.77 48.86 50.34C46.21 50.91 43.47 50.28 41.33 48.61L40.4 47.87C39.45 47.11 38.54 46.4 37.65 45.77C34.16 43.32 29.42 44.05 26.86 47.45L26.79 47.55C25 49.98 22.22 51.33 19.37 51.33V51.32Z" fill="#2846ED"/>
<path d="M52.11 17.93C52.96 23.82 53.02 28.85 51.7 32.37C48.53 31.25 46.12 29.9 44.94 28.19C44.63 26.51 44.61 24.92 44.94 23.45C46.79 20.86 49.21 19.06 52.1 17.92L52.11 17.93Z" fill="white"/>
<path d="M44.95 28.2C45.99 31.11 46.77 33.84 46.5 35.86C45.35 36.43 44.45 37.31 43.84 38.52C43.02 37.67 42.58 35.49 42.3 32.75C42.12 31.04 42.01 29.11 41.9 27.15C42.67 27.93 43.76 28.15 44.95 28.2Z" fill="#2846ED"/>
<path d="M44.95 23.46C44.62 24.93 44.64 26.52 44.95 28.2C43.76 28.16 42.67 27.94 41.9 27.15C41.62 26.16 41.51 25.19 41.9 24.25C42.71 23.5 43.74 23.26 44.95 23.45V23.46Z" fill="white"/>
<path d="M41.89 24.25C41.5 25.19 41.61 26.16 41.89 27.15C39.26 29.37 36.44 30.57 33.34 30.3C32.9 25.31 33.34 21.18 34.67 17.92C37.24 19.54 39.63 21.7 41.89 24.25Z" fill="white"/>
<path d="M34.2101 30.94C33.9101 30.94 33.6001 30.93 33.3001 30.9C33.0101 30.88 32.7801 30.65 32.7501 30.36C32.3001 25.29 32.7601 21.04 34.1201 17.7C34.1901 17.54 34.3201 17.41 34.4901 17.36C34.6601 17.31 34.8401 17.33 34.9901 17.42C37.3501 18.91 39.6301 20.88 41.9601 23.44C42.8101 22.87 43.8401 22.68 45.0401 22.87C45.2001 22.9 45.3501 22.99 45.4401 23.13C45.5301 23.27 45.5601 23.44 45.5301 23.6C45.2301 24.95 45.2301 26.46 45.5301 28.1C45.5601 28.28 45.5101 28.46 45.3901 28.6C45.2701 28.74 45.0901 28.83 44.9101 28.81C43.9701 28.77 42.8101 28.64 41.8701 27.95C39.3501 29.97 36.8301 30.96 34.1901 30.96L34.2101 30.94ZM33.9001 29.74C36.4801 29.82 38.9801 28.82 41.5101 26.7C41.7501 26.5 42.1001 26.51 42.3201 26.74C42.7501 27.18 43.3601 27.44 44.2301 27.55C44.0601 26.3 44.0601 25.11 44.2301 24C43.4701 24 42.8201 24.22 42.3001 24.7C42.1801 24.81 42.0301 24.86 41.8601 24.86C41.7001 24.86 41.5501 24.78 41.4401 24.66C39.2701 22.21 37.1401 20.3 34.9701 18.84C33.9301 21.78 33.5601 25.44 33.9001 29.74Z" fill="#2846ED"/>
<path d="M43.84 39.12C43.68 39.12 43.52 39.06 43.41 38.94C42.58 38.08 42.05 36.19 41.7 32.81C41.52 31.04 41.4 29.06 41.3 27.19C41.28 26.86 41.54 26.58 41.87 26.56C42.2 26.56 42.48 26.79 42.5 27.13C42.6 28.99 42.72 30.95 42.9 32.7C43.13 34.9 43.44 36.47 43.83 37.39C44.39 36.6 45.09 35.96 45.94 35.49C46.09 33.51 45.24 30.81 44.38 28.41C44.28 28.13 44.4 27.81 44.67 27.67C44.94 27.53 45.27 27.61 45.44 27.86C46.4 29.26 48.33 30.48 51.34 31.61C52.29 28.63 52.38 24.42 51.63 18.79C49.09 19.92 47.01 21.61 45.44 23.81C45.25 24.08 44.87 24.14 44.6 23.95C44.33 23.76 44.27 23.38 44.46 23.11C46.32 20.51 48.82 18.58 51.89 17.37C52.06 17.3 52.25 17.32 52.41 17.41C52.57 17.5 52.68 17.66 52.7 17.84C53.65 24.43 53.51 29.25 52.26 32.58C52.15 32.89 51.8 33.04 51.5 32.94C49.29 32.16 47.57 31.32 46.3 30.38C46.89 32.35 47.3 34.33 47.09 35.93C47.06 36.13 46.94 36.3 46.76 36.39C45.7 36.92 44.91 37.7 44.36 38.79C44.27 38.96 44.11 39.08 43.91 39.11C43.88 39.11 43.85 39.11 43.82 39.11L43.84 39.12Z" fill="#2846ED"/>
<path d="M39.95 40.04V40.02L38.58 36.35C38.56 36.28 38.54 36.22 38.54 36.15C38.52 33.55 39.38 30.66 41.25 27.07C41.04 26.26 40.87 25.14 41.34 24.02C41.47 23.71 41.82 23.57 42.12 23.69C42.43 23.82 42.57 24.17 42.45 24.47C42.17 25.15 42.17 25.93 42.47 26.97C42.51 27.12 42.5 27.28 42.42 27.41C40.6 30.86 39.75 33.6 39.74 36.02L41.07 39.6L39.94 40.02L39.95 40.04Z" fill="#2846ED"/>
<path d="M40.51 40.44C40.44 40.44 40.37 40.43 40.3 40.4C40 40.28 39.84 39.96 39.94 39.66C39.94 39.65 39.95 39.62 39.96 39.61C41.51 36.04 41.62 33.84 41.67 33.02C41.67 32.85 41.69 32.73 41.7 32.66C41.75 32.33 42.06 32.11 42.38 32.16C42.71 32.21 42.93 32.52 42.88 32.84C42.88 32.89 42.88 32.97 42.86 33.08C42.82 33.97 42.69 36.32 41.06 40.07C40.96 40.3 40.74 40.44 40.5 40.44H40.51Z" fill="#2846ED"/>
</svg>
