<svg width="64" height="64" viewBox="0 0 64 64" fill="none" xmlns="http://www.w3.org/2000/svg">
<path d="M19.32 16.01C19.21 16.01 19.1 15.98 19 15.91C18.72 15.73 18.64 15.36 18.82 15.08C20.3 12.79 22.12 10.72 24.24 8.91999C24.49 8.70999 24.87 8.73999 25.09 8.98999C25.3 9.23999 25.27 9.61999 25.02 9.83999C22.99 11.56 21.25 13.54 19.84 15.73C19.73 15.91 19.53 16 19.34 16L19.32 16.01Z" fill="#2846ED"/>
<path d="M9.60004 31.2C9.50004 31.2 9.40004 31.17 9.30004 31.12C9.01004 30.96 8.91004 30.59 9.07004 30.3C11.02 26.87 13.59 22.6 16.18 19.94C16.41 19.7 16.79 19.7 17.03 19.94C17.27 20.17 17.27 20.55 17.03 20.79C14.53 23.35 12.01 27.54 10.1 30.9C9.99004 31.09 9.79004 31.2 9.58004 31.2H9.60004Z" fill="#2846ED"/>
<path d="M48.49 19.02C48.22 19.02 47.98 18.84 47.91 18.57C47.69 17.74 47.41 16.86 47.12 15.92C46.64 14.39 46.1 12.66 45.66 10.72C45.59 10.4 45.79 10.08 46.11 9.99998C46.43 9.92998 46.75 10.13 46.83 10.45C47.26 12.34 47.79 14.05 48.27 15.56C48.57 16.53 48.85 17.42 49.08 18.27C49.16 18.59 48.97 18.92 48.65 19C48.6 19.01 48.55 19.02 48.5 19.02H48.49Z" fill="#2846ED"/>
<path d="M53.72 34.74C53.59 34.74 53.46 34.7 53.36 34.62C52.54 34 51.29 32.23 49.86 24.19C49.8 23.86 50.02 23.55 50.35 23.49C50.67 23.43 50.99 23.65 51.05 23.98C52.3 31.01 53.4 33.13 54.1 33.67C54.36 33.87 54.41 34.25 54.21 34.51C54.09 34.66 53.91 34.75 53.73 34.75L53.72 34.74Z" fill="#2846ED"/>
<path d="M47.96 19.21C47.51 19.21 47 19.14 46.44 19C46.12 18.92 45.93 18.59 46.01 18.27C46.09 17.95 46.41 17.75 46.74 17.84C48.62 18.32 49.19 17.83 49.47 16.93C49.57 16.61 49.9 16.44 50.22 16.54C50.54 16.64 50.71 16.97 50.62 17.29C50.22 18.57 49.33 19.22 47.97 19.22L47.96 19.21Z" fill="#2846ED"/>
<path d="M20.44 16.22C19.86 16.22 19.29 16.11 18.83 15.78C18.21 15.34 17.84 14.59 17.7 13.47C17.66 13.14 17.89 12.84 18.22 12.8C18.54 12.76 18.85 12.99 18.89 13.32C18.98 14.08 19.19 14.57 19.52 14.8C19.93 15.09 20.66 15.09 21.83 14.83C22.15 14.76 22.48 14.96 22.55 15.28C22.62 15.6 22.42 15.93 22.1 16C21.59 16.12 21.01 16.22 20.44 16.22Z" fill="#2846ED"/>
<path d="M27.99 10.5C27.67 10.5 27.41 10.25 27.39 9.93003C27.29 8.20003 26.71 7.15003 25.57 6.64003C25.27 6.50003 25.13 6.15003 25.27 5.85003C25.41 5.55003 25.76 5.41003 26.06 5.55003C27.64 6.26003 28.46 7.67003 28.59 9.87003C28.61 10.2 28.36 10.48 28.03 10.5C28.02 10.5 28.01 10.5 28 10.5H27.99Z" fill="#2846ED"/>
<path d="M29.94 11.68C29.94 11.68 29.86 11.68 29.81 11.67C29.49 11.6 29.28 11.28 29.35 10.96C29.76 9.05999 29.43 7.51999 28.28 5.95999C28.08 5.68999 28.14 5.31999 28.41 5.11999C28.68 4.91999 29.05 4.97999 29.25 5.24999C30.61 7.07999 31.01 8.97999 30.53 11.21C30.47 11.49 30.22 11.68 29.94 11.68Z" fill="#2846ED"/>
<path d="M40.67 13.99C40.43 13.99 40.2 13.84 40.11 13.6L39.86 12.93C38.97 10.53 38.56 9.43997 39.27 6.37997C39.35 6.05997 39.67 5.85997 39.99 5.92997C40.31 6.00997 40.51 6.32997 40.44 6.64997C39.81 9.35997 40.1 10.15 40.98 12.51L41.23 13.19C41.34 13.5 41.18 13.85 40.87 13.96C40.8 13.99 40.73 14 40.66 14L40.67 13.99Z" fill="#2846ED"/>
<path d="M42.4 11.55C42.16 11.55 41.93 11.4 41.84 11.17C41.06 9.18001 41.24 7.40001 42.37 5.88001C42.57 5.61001 42.95 5.56001 43.21 5.75001C43.48 5.95001 43.53 6.32001 43.33 6.59001C42.45 7.77001 42.33 9.13001 42.96 10.73C43.08 11.04 42.93 11.39 42.62 11.51C42.55 11.54 42.47 11.55 42.4 11.55Z" fill="#2846ED"/>
<path d="M19.85 21.85C19.66 21.85 19.48 21.83 19.29 21.78C16.39 21.06 14.45 19.91 13.52 18.36C13.22 17.85 13.12 17.25 13.25 16.66C13.75 14.4 14.56 12.61 15.72 11.19C16.26 10.53 17.12 10.21 17.97 10.38C20.67 10.89 22.59 11.91 23.85 13.48C24.26 14 24.43 14.67 24.32 15.33C23.9 17.69 22.97 19.64 21.55 21.13C21.1 21.6 20.48 21.85 19.85 21.85ZM17.54 11.54C17.2 11.54 16.88 11.69 16.66 11.96C15.62 13.23 14.89 14.85 14.43 16.93C14.37 17.21 14.41 17.51 14.56 17.75C15.32 19.02 17.01 19.98 19.59 20.62C19.99 20.72 20.41 20.59 20.69 20.3C21.95 18.99 22.77 17.25 23.15 15.12C23.21 14.8 23.12 14.48 22.92 14.23C21.85 12.89 20.16 12.02 17.76 11.56C17.69 11.55 17.62 11.54 17.55 11.54H17.54Z" fill="#2846ED"/>
<path d="M49.32 24.51C48.44 24.51 47.45 24.37 46.38 24.1C45.86 23.97 45.45 23.57 45.31 23.05L43.95 18.21C43.71 17.38 44.03 16.49 44.73 15.99C46.61 14.66 48.59 14.13 50.96 14.32C51.51 14.36 52 14.69 52.25 15.18C53.61 17.83 54.17 20.01 53.96 21.83C53.92 22.17 53.79 22.48 53.58 22.73C52.59 23.91 51.17 24.51 49.32 24.51ZM50.06 15.48C48.33 15.48 46.84 15.96 45.41 16.96C45.12 17.16 44.99 17.53 45.09 17.87L46.45 22.71C46.48 22.81 46.56 22.9 46.67 22.92C49.5 23.64 51.51 23.31 52.65 21.95C52.71 21.88 52.75 21.79 52.76 21.68C52.94 20.1 52.42 18.14 51.17 15.71C51.11 15.59 50.99 15.51 50.85 15.5C50.58 15.48 50.31 15.47 50.06 15.47V15.48Z" fill="#2846ED"/>
<path d="M40.04 47.27C40.77 48.37 40.72 49.71 40.57 51.08C39.76 51.62 38.89 52.33 37.98 53.12C35.31 51.57 32.57 51.7 29.77 53.12C29.1 52.44 28.27 51.8 27.29 51.18C25.7 47.5 25.23 44.59 28.73 44.37C30.98 44.26 31.8 42.56 31.13 39.21C28.83 33.34 30.09 28.47 34.53 20.82C34.15 26.17 34.34 31.21 35.35 35.79C35.53 36.59 35.85 37.35 36.29 38.05C37.21 39.53 37.18 42.43 37.25 45.19C37.42 46.14 37.85 46.61 38.52 46.64C39.19 46.44 39.67 46.73 40.06 47.27H40.04Z" fill="#2846ED"/>
<path d="M29.76 53.72C29.6 53.72 29.45 53.66 29.33 53.54C28.69 52.9 27.89 52.27 26.96 51.69C26.36 51.31 25.67 50.94 24.92 50.58C24.8 50.52 24.71 50.43 24.65 50.31C24.06 49.16 23.56 48.03 23.18 46.95C21.7 42.79 21.72 38.99 23.23 35.36C23.33 35.12 23.58 34.97 23.84 34.99C24.1 35.01 24.32 35.2 24.37 35.46C25.71 41.41 26.9 41.8 26.95 41.81C26.96 41.81 26.99 41.82 27.07 41.74C27.89 40.88 28.42 36.2 26.49 30.32C26.16 28.86 26.5 27.36 27.43 26.05C31.73 21.09 33.8 16.02 32.51 13.68C32.36 13.41 32.44 13.07 32.7 12.89C32.95 12.72 33.3 12.76 33.5 13.01C35.83 15.85 38.08 18.97 38.75 22.57C38.84 23.07 38.98 23.55 39.15 24.02C39.61 25.29 39.49 26.67 38.83 27.85C37.26 30.61 37.23 33.32 38.73 36.12C39.06 36.74 39.23 37.43 39.22 38.12C39.19 41.46 40 42.88 40.34 42.9C40.55 42.95 41.47 42.16 42.05 38.4C42.09 38.13 42.31 37.92 42.58 37.89C42.86 37.86 43.11 38.02 43.2 38.27C44.15 40.76 44.42 43.95 44.55 46.75C44.55 46.97 44.45 47.18 44.26 47.29C43.34 47.85 43.01 48.86 42.77 50.32C42.74 50.53 42.59 50.71 42.39 50.79C41.97 50.95 41.47 51.21 40.91 51.59C40.21 52.06 39.38 52.71 38.38 53.58C38.19 53.75 37.91 53.77 37.69 53.65C35.3 52.26 32.8 52.27 30.05 53.67C29.96 53.71 29.87 53.73 29.78 53.73L29.76 53.72ZM25.62 49.59C26.34 49.94 27 50.31 27.59 50.68C28.46 51.22 29.23 51.8 29.87 52.4C32.69 51.09 35.39 51.09 37.89 52.4C38.8 51.62 39.55 51.04 40.23 50.59C40.74 50.25 41.2 49.99 41.63 49.8C41.85 48.59 42.21 47.31 43.32 46.48C43.23 44.69 43.07 42.75 42.71 40.99C42.11 43.09 41.24 44.18 40.23 44.1C38.83 43.99 37.98 41.69 38.01 38.11C38.01 37.62 37.89 37.13 37.66 36.69C35.98 33.54 36.02 30.37 37.78 27.26C38.27 26.39 38.36 25.38 38.03 24.47C37.82 23.91 37.67 23.36 37.57 22.8C37.09 20.24 35.71 17.89 34.09 15.71C33.96 18.68 31.92 22.72 28.38 26.81C27.68 27.79 27.41 28.95 27.65 30.02C29.53 35.73 29.32 41.15 27.94 42.59C27.57 42.98 27.11 43.12 26.63 42.99C25.56 42.69 24.58 40.93 23.69 37.74C22.97 40.52 23.17 43.37 24.31 46.57C24.66 47.55 25.1 48.57 25.63 49.61L25.62 49.59Z" fill="#2846ED"/>
<path d="M23.7 34.76C23.62 34.76 23.53 34.74 23.46 34.71C23.25 34.61 23.11 34.4 23.1 34.17C23.08 33.08 22.84 32.36 22.36 31.99C22.17 31.84 21.99 31.68 21.82 31.5C19.49 28.94 18.95 26.17 20.21 23.26C20.31 23.03 20.53 22.89 20.79 22.9C21.04 22.91 21.26 23.08 21.33 23.32C22.16 26.03 23.02 27.78 23.88 28.55C24.33 28.96 24.69 29.47 24.9 30.05C25.62 31.98 25.35 33.52 24.08 34.62C23.97 34.72 23.83 34.77 23.69 34.77L23.7 34.76ZM20.81 25.49C20.56 27.3 21.19 29.01 22.71 30.69C22.83 30.82 22.96 30.93 23.1 31.04C23.54 31.38 23.86 31.86 24.06 32.47C24.16 31.97 24.12 31.32 23.79 30.46C23.64 30.07 23.4 29.71 23.09 29.44C22.29 28.72 21.53 27.42 20.81 25.49Z" fill="#2846ED"/>
<path d="M41.91 37.53C41.83 37.53 41.74 37.51 41.66 37.48C41.43 37.38 41.29 37.14 41.31 36.89C41.4 35.63 41.11 34.31 40.41 32.86C40.06 32.12 39.91 31.29 39.98 30.48C40.15 28.59 40.91 26.73 42.3 24.8C42.46 24.57 42.76 24.49 43.01 24.59C43.27 24.69 43.42 24.96 43.38 25.24C43.01 27.67 43.15 29.95 43.82 32.2C44.29 33.79 43.94 35.51 42.87 36.79C42.71 36.99 42.53 37.18 42.34 37.37C42.22 37.49 42.07 37.55 41.91 37.55V37.53ZM41.98 27.66C41.53 28.64 41.26 29.6 41.17 30.57C41.12 31.17 41.23 31.78 41.49 32.33C41.98 33.34 42.29 34.31 42.43 35.24C42.84 34.4 42.93 33.44 42.66 32.52C42.2 30.95 41.97 29.32 41.98 27.66Z" fill="#2846ED"/>
<path d="M27.28 51.78C27.05 51.78 26.83 51.64 26.73 51.42C25.39 48.33 25.14 46.39 25.9 45.15C26.41 44.32 27.34 43.86 28.68 43.78C29.42 43.74 29.93 43.52 30.26 43.1C30.8 42.41 30.89 41.16 30.54 39.38C28.03 32.92 29.91 27.57 34 20.52C34.14 20.28 34.43 20.17 34.7 20.25C34.97 20.33 35.14 20.59 35.12 20.87C34.72 26.54 34.98 31.38 35.92 35.67C36.08 36.37 36.37 37.07 36.78 37.74C37.71 39.23 37.76 41.76 37.82 44.44L37.84 45.18C37.97 45.9 38.27 46.01 38.45 46.04C39.04 45.9 39.85 45.96 40.54 46.93C41.41 48.24 41.32 49.8 41.17 51.15C41.13 51.48 40.83 51.71 40.51 51.68C40.18 51.64 39.94 51.35 39.98 51.02C40.11 49.82 40.19 48.57 39.55 47.61C39.2 47.12 38.92 47.15 38.68 47.22C38.62 47.24 38.55 47.24 38.48 47.24C37.92 47.22 36.93 46.93 36.65 45.29L36.62 44.45C36.57 42.05 36.52 39.57 35.77 38.36C35.28 37.57 34.94 36.75 34.75 35.91C33.93 32.18 33.61 28.06 33.78 23.37C30.28 29.97 29.78 34.12 31.68 38.98C31.69 39.01 31.7 39.05 31.71 39.08C32.15 41.28 31.98 42.83 31.21 43.82C30.66 44.52 29.84 44.9 28.75 44.96C27.82 45.02 27.22 45.28 26.93 45.76C26.41 46.61 26.7 48.3 27.84 50.93C27.97 51.23 27.84 51.59 27.53 51.72C27.45 51.75 27.37 51.77 27.29 51.77L27.28 51.78Z" fill="#2846ED"/>
<path d="M22.43 54.41C22.35 54.41 22.26 54.39 22.19 54.36C20.36 53.54 19.42 52.56 19.32 51.37C19.19 49.84 20.53 48.17 23.41 46.25C23.69 46.07 24.06 46.14 24.24 46.42C24.42 46.7 24.35 47.07 24.07 47.25C21.02 49.28 20.45 50.56 20.51 51.27C20.57 51.98 21.3 52.65 22.67 53.26C22.97 53.4 23.11 53.75 22.97 54.05C22.87 54.27 22.65 54.41 22.42 54.41H22.43Z" fill="#2846ED"/>
<path d="M45.48 54.2L45.26 53.59C44.64 51.83 43.67 50.97 42.11 50.82L42.23 49.63C44.05 49.81 45.33 50.77 46.14 52.55C46.91 52.09 47.4 51.56 47.59 50.98C47.79 50.36 47.67 49.6 47.23 48.74L46.01 47.39H43.94V46.19H46.54L48.25 48.12C48.88 49.31 49.04 50.4 48.73 51.36C48.4 52.37 47.55 53.22 46.19 53.89L46.08 53.95L45.49 54.22L45.48 54.2Z" fill="#2846ED"/>
<path d="M40.97 57.12C40.44 57.12 39.88 57.07 39.27 56.98L39.46 55.79C42.51 56.29 44.68 55.33 45.26 53.23L46.42 53.55C45.92 55.37 44.23 57.12 40.97 57.12Z" fill="#2846ED"/>
<path d="M27.6 57.34C24.52 57.34 22.52 55.76 21.88 54.01C21.53 53.06 21.6 52.09 22.07 51.29C22.46 50.62 23.29 49.76 25.08 49.45C25.41 49.39 25.72 49.61 25.77 49.94C25.82 50.27 25.61 50.58 25.28 50.63C24.23 50.81 23.47 51.25 23.11 51.89C22.82 52.39 22.79 52.99 23.01 53.6C23.59 55.18 25.69 56.45 28.7 56.07C27.84 54.16 28.59 53.14 29.44 52.61C29.72 52.43 30.09 52.52 30.27 52.8C30.44 53.08 30.36 53.45 30.08 53.63C29.76 53.83 29 54.3 30.14 56.21L30.57 56.93L29.75 57.1C28.99 57.26 28.27 57.34 27.61 57.34H27.6Z" fill="#2846ED"/>
<path d="M37.4801 58.52H37.3501C34.2101 58.45 31.6001 57.98 29.3901 57.07C29.0801 56.94 28.9401 56.59 29.0601 56.29C29.1901 55.98 29.5401 55.84 29.8401 55.96C31.8801 56.8 34.3101 57.24 37.2401 57.32C38.0301 56.98 38.5001 56.64 38.7501 56.22C38.7901 54.9 38.4301 54.06 37.6701 53.65C37.3801 53.49 37.2701 53.13 37.4201 52.84C37.5701 52.55 37.9401 52.44 38.2301 52.59C39.4501 53.24 40.0201 54.53 39.9401 56.41V56.54L39.8801 56.65C39.3901 57.63 38.3901 58.14 37.5801 58.48L37.4601 58.53L37.4801 58.52Z" fill="#2846ED"/>
</svg>
