<svg width="22" height="22" viewBox="0 0 22 22" fill="none" xmlns="http://www.w3.org/2000/svg" id="icon">
<path d="M8.02 1.84001L2.63 6.04001C1.73 6.74001 1 8.23001 1 9.36001V16.77C1 19.09 2.89 20.99 5.21 20.99H16.79C19.11 20.99 21 19.09 21 16.78V9.50001C21 8.29001 20.19 6.74001 19.2 6.05001L13.02 1.72001C11.62 0.74001 9.37 0.79001 8.02 1.84001Z" stroke="currentColor" stroke-width="1.5" stroke-linecap="round" stroke-linejoin="round"/>
<path d="M11.33 17.45C11.15 17.51 10.84 17.51 10.66 17.45C9.09997 16.92 5.59998 14.69 5.59998 10.91C5.59998 9.24 6.93998 7.89001 8.59998 7.89001C9.57998 7.89001 10.45 8.36001 11 9.10001C11.54 8.37001 12.42 7.89001 13.4 7.89001C15.06 7.89001 16.4 9.24 16.4 10.91C16.4 14.69 12.9 16.92 11.33 17.45Z" stroke="currentColor" stroke-width="1.5" stroke-linecap="round" stroke-linejoin="round"/>
</svg>
