<svg width="18" height="23" viewBox="0 0 18 23" fill="none" xmlns="http://www.w3.org/2000/svg">
<path fill-rule="evenodd" clip-rule="evenodd" d="M8.87993 11.8811H8.9146C12.0866 11.8811 14.666 9.26196 14.666 6.04116C14.666 2.82036 12.0866 0.200165 8.9146 0.200165C5.74151 0.200165 3.16101 2.82037 3.16101 6.03787C3.15018 9.24987 5.71443 11.8712 8.87993 11.8811ZM4.70801 6.04116C4.70801 3.68606 6.59518 1.77096 8.9146 1.77096C11.2329 1.77096 13.119 3.68606 13.119 6.04116C13.119 8.39516 11.2329 10.3114 8.9146 10.3114H8.88318C6.57351 10.3026 4.70043 8.38857 4.70801 6.04116Z" fill="currentColor"/>
<path fill-rule="evenodd" clip-rule="evenodd" d="M0.333496 17.9908C0.333496 22.0575 6.79233 22.0575 8.91458 22.0575C12.5968 22.0575 17.4935 21.6384 17.4935 18.0128C17.4935 13.9461 11.0368 13.9461 8.91458 13.9461C5.23125 13.9461 0.333496 14.3652 0.333496 17.9908ZM1.9585 17.9908C1.9585 16.4013 4.2985 15.5961 8.91458 15.5961C13.5296 15.5961 15.8685 16.409 15.8685 18.0128C15.8685 19.6023 13.5296 20.4075 8.91458 20.4075C4.2985 20.4075 1.9585 19.5946 1.9585 17.9908Z" fill="currentColor"/>
</svg>
