<svg width="64" height="64" viewBox="0 0 64 64" fill="none" xmlns="http://www.w3.org/2000/svg">
<path d="M26.58 13.04C14.81 19.21 15.93 39.77 23.91 30.7C21.93 47.22 22.62 52.12 23.67 55.49C23.89 56.2 24.38 56.82 25.06 57.23C27.31 58.57 29.89 56.69 31.48 52.54C37.08 65.24 42.63 53.4 37.49 30.7C43.42 44.74 47.27 20.89 34.24 12.9" fill="#2846ED"/>
<path d="M35.94 58.34C34.77 58.34 33.23 57.42 31.51 54C30.48 56.13 29.15 57.55 27.7 58.06C26.7 58.41 25.68 58.3 24.76 57.75C23.96 57.28 23.37 56.54 23.1 55.67C22.12 52.51 21.31 48.09 23.12 32.34C21.54 33.67 20.37 33.72 19.61 33.46C18.29 33.02 17.46 31.5 17.27 29.16C16.88 24.42 19.43 16.11 26.3 12.51L26.86 13.57C20.47 16.92 18.11 24.64 18.46 29.06C18.6 30.83 19.17 32.05 19.98 32.32C20.83 32.6 22.07 31.89 23.46 30.31C23.63 30.11 23.92 30.05 24.16 30.16C24.4 30.27 24.54 30.52 24.51 30.78C22.48 47.69 23.31 52.31 24.25 55.32C24.43 55.9 24.83 56.4 25.37 56.72C25.99 57.09 26.64 57.16 27.3 56.93C28.66 56.46 29.99 54.78 30.92 52.33C31.01 52.1 31.22 51.95 31.47 51.95C31.71 51.94 31.94 52.08 32.03 52.31C33.52 55.69 35.11 57.48 36.26 57.1C38.76 56.27 40.43 46.45 36.9 30.85C36.83 30.55 37.01 30.24 37.3 30.15C37.6 30.05 37.92 30.2 38.04 30.49C39.31 33.49 40.43 34.5 40.97 34.46C41.39 34.42 41.83 33.7 42.09 32.62C43.08 28.44 41.68 18.2 33.92 13.44L34.55 12.42C42.82 17.49 44.32 28.44 43.26 32.9C42.72 35.19 41.66 35.61 41.07 35.66C40.34 35.72 39.59 35.3 38.86 34.4C41.4 48.12 39.87 57.18 36.64 58.25C36.42 58.32 36.19 58.36 35.93 58.36L35.94 58.34Z" fill="#2846ED"/>
<path d="M50.46 8.35999C49.29 18.54 46.23 28.64 50.46 34.71C42.65 37.08 37.62 38.88 30.7 44.51C25.06 39.67 18.94 35.97 11.78 34.67C13.96 26.6 12.34 16.83 10.6 8.35999C17.28 13.86 24.13 17.61 31.22 18.84C37.73 18.07 44.12 13.7 50.46 8.35999Z" fill="white"/>
<path d="M30.7 45.1C30.56 45.1 30.42 45.05 30.31 44.96C23.94 39.49 18.02 36.41 11.68 35.26C11.51 35.23 11.37 35.13 11.28 34.99C11.19 34.85 11.16 34.67 11.21 34.51C13.28 26.82 11.86 17.45 10.01 8.47999C9.95996 8.22999 10.07 7.97999 10.29 7.84999C10.51 7.71999 10.78 7.73999 10.98 7.89999C18.01 13.69 24.63 17.07 31.23 18.23C38 17.39 44.55 12.54 50.07 7.89999C50.26 7.73999 50.52 7.70999 50.74 7.82999C50.96 7.94999 51.08 8.17999 51.05 8.42999C50.79 10.7 50.43 12.97 50.09 15.17C48.91 22.72 47.79 29.85 50.95 34.37C51.06 34.53 51.09 34.73 51.03 34.91C50.97 35.09 50.82 35.23 50.64 35.29C43.06 37.59 37.96 39.39 31.08 44.98C30.97 45.07 30.84 45.11 30.7 45.11V45.1ZM12.52 34.2C18.72 35.45 24.52 38.49 30.71 43.73C37.33 38.43 42.36 36.56 49.53 34.37C46.64 29.47 47.75 22.42 48.91 14.98C49.18 13.28 49.45 11.54 49.68 9.78999C44.25 14.25 37.92 18.64 31.29 19.43C31.23 19.43 31.17 19.43 31.12 19.43C24.69 18.32 18.27 15.18 11.52 9.86999C13.18 18.25 14.31 26.87 12.53 34.2H12.52Z" fill="#2846ED"/>
<path d="M30.1 44.53C29.52 33.53 29.68 25.33 30.61 18.74L31.8 18.91C30.88 25.42 30.72 33.54 31.3 44.47L30.1 44.53Z" fill="#2846ED"/>
<path d="M25.97 24.17C25.97 24.17 25.9 24.17 25.86 24.16C22.32 23.49 19.04 22.06 15.84 19.8C15.57 19.61 15.51 19.23 15.7 18.96C15.89 18.69 16.27 18.63 16.54 18.82C19.59 20.98 22.71 22.35 26.09 22.98C26.42 23.04 26.63 23.36 26.57 23.68C26.52 23.97 26.26 24.17 25.98 24.17H25.97Z" fill="#2846ED"/>
<path d="M25.34 28.4C25.22 28.4 25.1 28.36 24.99 28.29C23.39 27.14 21.58 26.4 19.67 25.62C18.45 25.12 17.19 24.61 15.92 23.96C15.63 23.81 15.51 23.45 15.66 23.15C15.81 22.85 16.17 22.74 16.47 22.89C17.7 23.52 18.94 24.02 20.13 24.51C22.11 25.32 23.98 26.08 25.7 27.31C25.97 27.5 26.03 27.88 25.84 28.15C25.72 28.31 25.54 28.4 25.35 28.4H25.34Z" fill="#2846ED"/>
<path d="M25.97 35.07C25.89 35.07 25.8 35.05 25.72 35.01L15.94 30.47C15.64 30.33 15.51 29.97 15.65 29.67C15.79 29.37 16.15 29.24 16.45 29.38L26.23 33.92C26.53 34.06 26.66 34.42 26.52 34.72C26.42 34.94 26.2 35.07 25.98 35.07H25.97Z" fill="#2846ED"/>
<path d="M25.97 31.93C25.89 31.93 25.8 31.91 25.72 31.87L15.94 27.33C15.64 27.19 15.51 26.83 15.65 26.53C15.79 26.23 16.15 26.1 16.45 26.24L26.23 30.78C26.53 30.92 26.66 31.28 26.52 31.58C26.42 31.8 26.2 31.93 25.98 31.93H25.97Z" fill="#2846ED"/>
<path d="M35.05 24.17C34.77 24.17 34.52 23.97 34.46 23.68C34.4 23.35 34.61 23.04 34.94 22.98C38.31 22.34 41.43 20.98 44.49 18.82C44.76 18.63 45.13 18.69 45.33 18.96C45.52 19.23 45.46 19.61 45.19 19.8C41.99 22.07 38.72 23.49 35.17 24.16C35.13 24.16 35.09 24.17 35.06 24.17H35.05Z" fill="#2846ED"/>
<path d="M35.6799 28.4C35.4899 28.4 35.3099 28.31 35.1899 28.15C34.9999 27.88 35.0599 27.51 35.3299 27.31C37.0499 26.08 38.9199 25.31 40.8999 24.51C42.0999 24.02 43.3299 23.52 44.5599 22.89C44.8499 22.74 45.2199 22.86 45.3699 23.15C45.5199 23.45 45.3999 23.81 45.1099 23.96C43.8399 24.61 42.5699 25.12 41.3599 25.62C39.4499 26.4 37.6399 27.14 36.0399 28.29C35.9299 28.37 35.8099 28.4 35.6899 28.4H35.6799Z" fill="#2846ED"/>
<path d="M35.6799 31.86C35.4899 31.86 35.3099 31.77 35.1899 31.61C34.9999 31.34 35.0599 30.97 35.3299 30.77C37.0499 29.54 38.9199 28.77 40.8999 27.97C42.0999 27.48 43.3299 26.98 44.5599 26.35C44.8499 26.2 45.2199 26.32 45.3699 26.61C45.5199 26.91 45.3999 27.27 45.1099 27.42C43.8399 28.07 42.5699 28.58 41.3599 29.08C39.4499 29.86 37.6399 30.6 36.0399 31.75C35.9299 31.83 35.8099 31.86 35.6899 31.86H35.6799Z" fill="#2846ED"/>
<path d="M35.0501 35.07C34.8201 35.07 34.6101 34.94 34.5101 34.72C34.3701 34.42 34.5101 34.06 34.8001 33.92L44.5801 29.38C44.8801 29.24 45.2401 29.38 45.3801 29.67C45.5201 29.97 45.3801 30.33 45.0901 30.47L35.3101 35.01C35.2301 35.05 35.1401 35.07 35.0601 35.07H35.0501Z" fill="#2846ED"/>
<path d="M30.3699 14.98C32.9599 14.98 35.0599 12.88 35.0599 10.29C35.0599 7.70001 32.9599 5.60001 30.3699 5.60001C27.7799 5.60001 25.6799 7.70001 25.6799 10.29C25.6799 12.88 27.7799 14.98 30.3699 14.98Z" fill="white"/>
<path d="M30.37 15.58C27.45 15.58 25.08 13.21 25.08 10.29C25.08 7.37 27.45 5 30.37 5C33.29 5 35.66 7.37 35.66 10.29C35.66 13.21 33.29 15.58 30.37 15.58ZM30.37 6.2C28.11 6.2 26.28 8.04 26.28 10.29C26.28 12.54 28.12 14.38 30.37 14.38C32.62 14.38 34.46 12.54 34.46 10.29C34.46 8.04 32.62 6.2 30.37 6.2Z" fill="#2846ED"/>
<path d="M17.76 46.62C17.64 46.62 17.51 46.58 17.4 46.5C15.73 45.25 13.86 43.39 14.15 40C14.18 39.67 14.46 39.41 14.8 39.45C15.13 39.48 15.37 39.77 15.35 40.1C15.16 42.32 15.99 43.94 18.12 45.54C18.39 45.74 18.44 46.11 18.24 46.38C18.12 46.54 17.94 46.62 17.76 46.62Z" fill="#2846ED"/>
<path d="M17.82 51.23C17.75 51.23 17.68 51.22 17.61 51.19C14.54 50.07 12.81 47.48 12.33 43.25C12.29 42.92 12.53 42.62 12.86 42.59C13.19 42.55 13.49 42.79 13.52 43.12C13.96 46.9 15.39 49.11 18.02 50.07C18.33 50.18 18.49 50.53 18.38 50.84C18.29 51.08 18.06 51.24 17.82 51.24V51.23Z" fill="#2846ED"/>
<path d="M46.4701 42.63C46.2201 42.63 45.9901 42.48 45.9001 42.23C45.7901 41.92 45.9501 41.57 46.2601 41.46C48.9101 40.52 50.4601 39.09 50.9801 37.08C51.0601 36.76 51.3901 36.57 51.7101 36.65C52.0301 36.73 52.2201 37.06 52.1401 37.38C51.5001 39.8 49.7101 41.5 46.6601 42.58C46.5901 42.6 46.5301 42.62 46.4601 42.62L46.4701 42.63Z" fill="#2846ED"/>
<path d="M45.79 46.26C45.49 46.26 45.24 46.04 45.2 45.74C45.16 45.41 45.39 45.11 45.72 45.07C48.68 44.68 50.93 43.36 52.61 41.03C52.8 40.76 53.18 40.7 53.45 40.89C53.72 41.08 53.7799 41.46 53.5899 41.73C51.7299 44.31 49.14 45.83 45.88 46.26C45.85 46.26 45.8299 46.26 45.7999 46.26H45.79Z" fill="#2846ED"/>
</svg>
