<svg width="64" height="64" viewBox="0 0 64 64" fill="none" xmlns="http://www.w3.org/2000/svg">
<path d="M54.35 24.1V26.99H9.59998V24.1H54.35Z" fill="#2846ED"/>
<path d="M52.61 53.06V56.75C52.61 57.3 52.21 57.74 51.72 57.74H13.05C12.56 57.74 12.16 57.3 12.16 56.75V53.06C12.16 52.51 12.56 52.07 13.05 52.07H51.71C52.2 52.07 52.6 52.51 52.6 53.06H52.61Z" fill="#2846ED"/>
<path d="M52.5799 26.99V29.73C52.5799 30.41 52.0299 30.97 51.3399 30.97H43.0599C42.3799 30.97 41.8199 30.42 41.8199 29.73V26.99H52.5699H52.5799Z" fill="#2846ED"/>
<path d="M50.91 30.97H43.98V52.07H50.91V30.97Z" fill="#2846ED"/>
<path d="M54.35 27.59H52.58C52.25 27.59 51.98 27.32 51.98 26.99C51.98 26.66 52.25 26.39 52.58 26.39H53.75V24.02L31.97 12.67L10.2 23.95V26.39H12.13C12.46 26.39 12.73 26.66 12.73 26.99C12.73 27.32 12.46 27.59 12.13 27.59H9.6C9.27 27.59 9 27.32 9 26.99V23.58C9 23.36 9.12 23.15 9.32 23.05L31.7 11.46C31.87 11.37 32.08 11.37 32.25 11.46L54.62 23.12C54.82 23.22 54.94 23.43 54.94 23.65V26.99C54.94 27.32 54.67 27.59 54.34 27.59H54.35Z" fill="#2846ED"/>
<path d="M41.83 27.59H37.36C37.03 27.59 36.76 27.32 36.76 26.99C36.76 26.66 37.03 26.39 37.36 26.39H41.83C42.16 26.39 42.43 26.66 42.43 26.99C42.43 27.32 42.16 27.59 41.83 27.59Z" fill="#2846ED"/>
<path d="M26.6 27.59H22.88C22.55 27.59 22.28 27.32 22.28 26.99C22.28 26.66 22.55 26.39 22.88 26.39H26.6C26.93 26.39 27.2 26.66 27.2 26.99C27.2 27.32 26.93 27.59 26.6 27.59Z" fill="#2846ED"/>
<path d="M21.64 31.57H21.2C20.87 31.57 20.6 31.3 20.6 30.97C20.6 30.64 20.87 30.37 21.2 30.37H21.64C21.99 30.37 22.28 30.08 22.28 29.73V27.59H12.73V29.73C12.73 30.08 13.02 30.37 13.37 30.37H14.28C14.61 30.37 14.88 30.64 14.88 30.97C14.88 31.3 14.61 31.57 14.28 31.57H13.37C12.36 31.57 11.53 30.75 11.53 29.73V26.99C11.53 26.66 11.8 26.39 12.13 26.39H22.88C23.21 26.39 23.48 26.66 23.48 26.99V29.73C23.48 30.74 22.66 31.57 21.64 31.57Z" fill="#2846ED"/>
<path d="M21.2101 52.67C20.8801 52.67 20.6101 52.4 20.6101 52.07V31.57H14.8801V52.07C14.8801 52.4 14.6101 52.67 14.2801 52.67C13.9501 52.67 13.6801 52.4 13.6801 52.07V30.97C13.6801 30.64 13.9501 30.37 14.2801 30.37H21.2101C21.5401 30.37 21.8101 30.64 21.8101 30.97V52.07C21.8101 52.4 21.5401 52.67 21.2101 52.67Z" fill="#2846ED"/>
<path d="M36.11 31.57H35.67C35.34 31.57 35.07 31.3 35.07 30.97C35.07 30.64 35.34 30.37 35.67 30.37H36.11C36.46 30.37 36.75 30.08 36.75 29.73V27.59H27.2V29.73C27.2 30.08 27.49 30.37 27.84 30.37H28.75C29.08 30.37 29.35 30.64 29.35 30.97C29.35 31.3 29.08 31.57 28.75 31.57H27.84C26.83 31.57 26 30.75 26 29.73V26.99C26 26.66 26.27 26.39 26.6 26.39H37.35C37.68 26.39 37.95 26.66 37.95 26.99V29.73C37.95 30.74 37.13 31.57 36.11 31.57Z" fill="#2846ED"/>
<path d="M35.68 52.67C35.35 52.67 35.08 52.4 35.08 52.07V31.57H29.35V52.07C29.35 52.4 29.08 52.67 28.75 52.67C28.42 52.67 28.15 52.4 28.15 52.07V30.97C28.15 30.64 28.42 30.37 28.75 30.37H35.68C36.01 30.37 36.28 30.64 36.28 30.97V52.07C36.28 52.4 36.01 52.67 35.68 52.67Z" fill="#2846ED"/>
<path d="M51.34 31.57H50.9C50.57 31.57 50.3 31.3 50.3 30.97C50.3 30.64 50.57 30.37 50.9 30.37H51.34C51.69 30.37 51.98 30.08 51.98 29.73V27.59H42.43V29.73C42.43 30.08 42.72 30.37 43.07 30.37H43.98C44.31 30.37 44.58 30.64 44.58 30.97C44.58 31.3 44.31 31.57 43.98 31.57H43.07C42.06 31.57 41.23 30.75 41.23 29.73V26.99C41.23 26.66 41.5 26.39 41.83 26.39H52.58C52.91 26.39 53.18 26.66 53.18 26.99V29.73C53.18 30.74 52.36 31.57 51.34 31.57Z" fill="#2846ED"/>
<path d="M50.91 52.67C50.58 52.67 50.31 52.4 50.31 52.07V31.57H44.58V52.07C44.58 52.4 44.31 52.67 43.98 52.67C43.65 52.67 43.38 52.4 43.38 52.07V30.97C43.38 30.64 43.65 30.37 43.98 30.37H50.91C51.24 30.37 51.51 30.64 51.51 30.97V52.07C51.51 52.4 51.24 52.67 50.91 52.67Z" fill="#2846ED"/>
<path d="M51.7101 58.33H13.0501C12.2301 58.33 11.5601 57.62 11.5601 56.74V53.05C11.5601 52.17 12.2301 51.46 13.0501 51.46H51.7101C52.5301 51.46 53.2001 52.17 53.2001 53.05V56.74C53.2001 57.62 52.5301 58.33 51.7101 58.33ZM13.0501 52.67C12.8901 52.67 12.7601 52.85 12.7601 53.06V56.75C12.7601 56.96 12.8901 57.14 13.0501 57.14H51.7101C51.8701 57.14 52.0001 56.96 52.0001 56.75V53.06C52.0001 52.85 51.8601 52.67 51.7101 52.67H13.0501Z" fill="#2846ED"/>
<path d="M54.35 24.7H9.6C9.27 24.7 9 24.43 9 24.1C9 23.77 9.27 23.5 9.6 23.5H54.35C54.68 23.5 54.95 23.77 54.95 24.1C54.95 24.43 54.68 24.7 54.35 24.7Z" fill="#2846ED"/>
<path d="M48.4701 15.28C48.2301 15.28 48.0101 15.14 47.9101 14.91C46.2201 10.75 43.5101 9.03998 39.6201 9.65998C39.3001 9.70998 38.9901 9.48998 38.9301 9.15998C38.8801 8.82998 39.1001 8.52998 39.4301 8.46998C43.8901 7.75998 47.1201 9.76998 49.0201 14.45C49.1401 14.76 49 15.11 48.69 15.23C48.62 15.26 48.54 15.27 48.46 15.27L48.4701 15.28Z" fill="#2846ED"/>
<path d="M47.6501 8.64003C47.4901 8.64003 47.3401 8.58003 47.2201 8.46003C45.0201 6.21003 42.4001 5.65003 39.2001 6.74003C38.8801 6.85003 38.5401 6.68003 38.4401 6.37003C38.3301 6.06003 38.5001 5.72003 38.8101 5.61003C42.4401 4.37003 45.5601 5.05003 48.0801 7.63003C48.3101 7.87003 48.3101 8.25003 48.0701 8.48003C47.9501 8.59003 47.8001 8.65003 47.6501 8.65003V8.64003Z" fill="#2846ED"/>
</svg>
