<svg width="64" height="64" viewBox="0 0 64 64" fill="none" xmlns="http://www.w3.org/2000/svg">
<path d="M21.6 25.73C19.05 25.73 16.97 23.65 16.97 21.1C16.97 18.55 19.05 16.47 21.6 16.47C24.15 16.47 26.23 18.55 26.23 21.1C26.23 23.65 24.15 25.73 21.6 25.73ZM21.6 17.67C19.71 17.67 18.17 19.21 18.17 21.1C18.17 22.99 19.71 24.53 21.6 24.53C23.49 24.53 25.03 22.99 25.03 21.1C25.03 19.21 23.49 17.67 21.6 17.67Z" fill="#2846ED"/>
<path d="M29.87 26.48C27.55 26.48 25.67 24.59 25.67 22.28C25.67 19.97 27.56 18.08 29.87 18.08C32.18 18.08 34.07 19.97 34.07 22.28C34.07 24.59 32.18 26.48 29.87 26.48ZM29.87 19.27C28.21 19.27 26.87 20.62 26.87 22.27C26.87 23.92 28.22 25.27 29.87 25.27C31.52 25.27 32.87 23.92 32.87 22.27C32.87 20.62 31.52 19.27 29.87 19.27Z" fill="#2846ED"/>
<path d="M19.72 10.65C19.46 10.65 19.22 10.48 19.15 10.22C18.58 8.33999 18.83 6.42999 19.91 4.55999C20.08 4.26999 20.44 4.16999 20.73 4.33999C21.02 4.50999 21.12 4.86999 20.95 5.15999C20.03 6.74999 19.82 8.28999 20.3 9.86999C20.4 10.19 20.22 10.52 19.9 10.62C19.84 10.64 19.78 10.65 19.73 10.65H19.72Z" fill="#2846ED"/>
<path d="M18.07 13.05C17.88 13.05 17.7 12.96 17.58 12.8C16.11 10.75 15.93 8.55001 17.02 6.08001C17.15 5.78001 17.51 5.64001 17.81 5.77001C18.11 5.90001 18.25 6.26001 18.12 6.56001C17.2 8.64001 17.34 10.4 18.55 12.1C18.74 12.37 18.68 12.74 18.41 12.94C18.3 13.02 18.18 13.05 18.06 13.05H18.07Z" fill="#2846ED"/>
<path d="M35.64 16.96C35.43 16.96 35.23 16.85 35.12 16.66C34.95 16.37 35.05 16.01 35.34 15.84C36.44 15.2 36.99 14.08 37.03 12.43C37.03 12.1 37.32 11.84 37.64 11.84C37.97 11.84 38.23 12.12 38.23 12.45C38.19 14.52 37.42 16.01 35.95 16.87C35.85 16.93 35.75 16.95 35.65 16.95L35.64 16.96Z" fill="#2846ED"/>
<path d="M37.72 19.64C37.52 19.64 37.32 19.54 37.21 19.35C37.04 19.07 37.13 18.7 37.41 18.53C38.6 17.81 39.21 16.84 39.28 15.54C39.3 15.21 39.6 14.96 39.91 14.97C40.24 14.99 40.49 15.27 40.48 15.6C40.39 17.3 39.57 18.63 38.03 19.56C37.93 19.62 37.83 19.65 37.72 19.65V19.64Z" fill="#2846ED"/>
<path d="M26.82 16.11C26.7 16.11 26.57 16.07 26.47 16C24.96 14.91 22.71 10.14 22.43 8.81002C22.06 7.08002 22.67 5.54002 24.05 4.70002C25.34 3.92002 26.98 3.99002 28.04 4.86002C28.4 5.15002 28.83 5.65002 29.05 6.45002C30.67 4.02002 32.54 3.95002 33.21 4.01002C34.93 4.18002 36.24 5.62002 36.41 7.51002C36.65 10.3 34.3 14.02 26.98 16.08C26.93 16.1 26.87 16.1 26.82 16.1V16.11ZM25.99 5.35002C25.55 5.35002 25.09 5.47002 24.67 5.72002C23.73 6.29002 23.34 7.32002 23.6 8.56002C23.85 9.75002 25.76 13.69 26.96 14.84C33.34 12.97 35.41 9.90001 35.21 7.62002C35.1 6.31002 34.22 5.32002 33.09 5.21002C31.81 5.07002 30.09 6.15002 28.93 9.43002C28.86 9.69001 28.77 9.97002 28.66 10.26C28.55 10.56 28.22 10.73 27.91 10.62C27.6 10.52 27.43 10.19 27.52 9.88002C27.6 9.60002 27.69 9.34002 27.78 9.08002C28.18 7.57002 28.01 6.39002 27.27 5.78002C26.92 5.49002 26.46 5.35002 25.98 5.35002H25.99Z" fill="#2846ED"/>
<path d="M18.68 59.2C18.36 59.2 18.05 59.14 17.76 59.01C15.12 57.9 14.21 51.92 14.68 38.48C13.6 39.38 12.62 39.71 11.77 39.45C10.87 39.18 10.26 38.27 10.07 36.89C9.57998 33.44 11.67 26.5 17.74 22.53L18.4 23.53C13.01 27.05 10.79 33.45 11.26 36.72C11.39 37.6 11.7 38.17 12.12 38.3C12.74 38.49 13.77 37.85 14.89 36.6C15.06 36.41 15.33 36.35 15.56 36.44C15.79 36.53 15.94 36.77 15.93 37.02C15.71 42.38 15.12 56.6 18.21 57.9C19.25 58.34 20.77 57.05 21.86 55.9C21.98 55.77 22.15 55.7 22.33 55.71C22.51 55.71 22.67 55.81 22.78 55.95C23.6 57.03 24.37 57.6 25.06 57.64C25.51 57.66 25.96 57.47 26.43 57.04C25.65 54.37 25.16 50.88 26.32 39.34C25.52 40.04 24.79 40.33 24.11 40.22C23.63 40.14 22.98 39.82 22.59 38.74C21.49 35.72 23.02 28.94 26.65 24.73L27.56 25.51C23.96 29.69 22.86 35.99 23.72 38.33C23.83 38.63 24.02 38.99 24.31 39.03C24.5 39.06 25.23 39.03 26.64 37.24C26.81 37.03 27.09 36.96 27.34 37.06C27.59 37.16 27.74 37.41 27.71 37.68C26.28 50.95 26.88 54.41 27.69 57.04C27.75 57.25 27.7 57.47 27.55 57.63C26.75 58.49 25.9 58.89 25 58.85C24.07 58.8 23.17 58.27 22.26 57.22C20.9 58.55 19.72 59.2 18.68 59.2Z" fill="#2846ED"/>
<path d="M35.4 58.98C34.36 58.98 33.34 57.96 32.36 55.93C31.53 57.65 30.45 58.71 29.29 58.89C28.61 58.99 27.6 58.85 26.63 57.57L27.59 56.85C28.07 57.5 28.58 57.79 29.1 57.7C30.05 57.55 31.08 56.2 31.77 54.19C31.85 53.95 32.07 53.79 32.32 53.79C32.56 53.79 32.8 53.94 32.89 54.17C34.11 57.26 35.12 57.9 35.53 57.76C37.03 57.32 38.43 50.24 35.89 37.73C35.83 37.42 36.01 37.12 36.31 37.03C36.61 36.94 36.93 37.1 37.04 37.39C38.12 40.23 38.89 40.23 38.89 40.22C39.09 40.2 39.48 39.72 39.72 38.51C40.39 35.03 39.16 27.28 33.2 24.28L33.74 23.21C40.05 26.38 41.74 34.35 40.9 38.74C40.58 40.39 39.91 41.34 39 41.42C38.55 41.46 38.11 41.29 37.69 40.9C39.2 50.49 38.5 58.13 35.88 58.9C35.72 58.95 35.56 58.97 35.4 58.97V58.98Z" fill="#2846ED"/>
<path d="M48.61 34.99C54.77 38.75 55.71 45.86 51 43.22C51.78 52.89 52.18 56.98 46.76 54.06C41.88 57.32 42.15 49.06 43.32 41.34C36.14 43.09 40.56 36.82 45.17 34.5C45.59 35.08 46.27 35.45 47.04 35.45C47.6 35.45 48.11 35.25 48.51 34.92L48.61 34.99Z" fill="#2846ED"/>
<path d="M45.17 34.49C44.89 34.11 44.73 33.64 44.73 33.13C44.73 31.86 45.76 30.82 47.04 30.82C48.32 30.82 49.35 31.85 49.35 33.13C49.35 33.85 49.02 34.49 48.51 34.91C48.11 35.24 47.6 35.44 47.04 35.44C46.27 35.44 45.59 35.06 45.17 34.49Z" fill="#2846ED"/>
</svg>
